<?xml version="1.0" encoding="utf-8" standalone="no"?>
<!DOCTYPE svg PUBLIC "-//W3C//DTD SVG 1.1//EN"
  "http://www.w3.org/Graphics/SVG/1.1/DTD/svg11.dtd">
<svg xmlns:xlink="http://www.w3.org/1999/xlink" width="1008pt" height="648pt" viewBox="0 0 1008 648" xmlns="http://www.w3.org/2000/svg" version="1.1">
 <metadata>
  <rdf:RDF xmlns:dc="http://purl.org/dc/elements/1.1/" xmlns:cc="http://creativecommons.org/ns#" xmlns:rdf="http://www.w3.org/1999/02/22-rdf-syntax-ns#">
   <cc:Work>
    <dc:type rdf:resource="http://purl.org/dc/dcmitype/StillImage"/>
    <dc:date>2024-09-12T13:05:41.712229</dc:date>
    <dc:format>image/svg+xml</dc:format>
    <dc:creator>
     <cc:Agent>
      <dc:title>Matplotlib v3.8.4, https://matplotlib.org/</dc:title>
     </cc:Agent>
    </dc:creator>
   </cc:Work>
  </rdf:RDF>
 </metadata>
 <defs>
  <style type="text/css">*{stroke-linejoin: round; stroke-linecap: butt}</style>
 </defs>
 <g id="figure_1">
  <g id="patch_1">
   <path d="M 0 648 
L 1008 648 
L 1008 0 
L 0 0 
z
" style="fill: #ffffff"/>
  </g>
  <g id="axes_1">
   <g id="patch_2">
    <path d="M 39.58149 614.64351 
L 992.27476 614.64351 
L 992.27476 6.799459 
L 39.58149 6.799459 
z
" style="fill: #ffffff"/>
   </g>
   <g id="PathCollection_1">
    <defs>
     <path id="m147e30ee33" d="M 0 2.236068 
C 0.593012 2.236068 1.161816 2.000462 1.581139 1.581139 
C 2.000462 1.161816 2.236068 0.593012 2.236068 0 
C 2.236068 -0.593012 2.000462 -1.161816 1.581139 -1.581139 
C 1.161816 -2.000462 0.593012 -2.236068 0 -2.236068 
C -0.593012 -2.236068 -1.161816 -2.000462 -1.581139 -1.581139 
C -2.000462 -1.161816 -2.236068 -0.593012 -2.236068 0 
C -2.236068 0.593012 -2.000462 1.161816 -1.581139 1.581139 
C -1.161816 2.000462 -0.593012 2.236068 0 2.236068 
z
" style="stroke: #0000ff"/>
    </defs>
    <g clip-path="url(#p5f12f358a4)">
     <use xlink:href="#m147e30ee33" x="723.479159" y="325.917586" style="fill: #0000ff; stroke: #0000ff"/>
     <use xlink:href="#m147e30ee33" x="891.561471" y="323.891439" style="fill: #0000ff; stroke: #0000ff"/>
     <use xlink:href="#m147e30ee33" x="572.068978" y="356.309788" style="fill: #0000ff; stroke: #0000ff"/>
     <use xlink:href="#m147e30ee33" x="832.528513" y="354.283641" style="fill: #0000ff; stroke: #0000ff"/>
     <use xlink:href="#m147e30ee33" x="907.212861" y="296.538457" style="fill: #0000ff; stroke: #0000ff"/>
     <use xlink:href="#m147e30ee33" x="626.508594" y="335.035246" style="fill: #0000ff; stroke: #0000ff"/>
     <use xlink:href="#m147e30ee33" x="735.047577" y="328.956806" style="fill: #0000ff; stroke: #0000ff"/>
     <use xlink:href="#m147e30ee33" x="483.774727" y="314.773778" style="fill: #0000ff; stroke: #0000ff"/>
    </g>
   </g>
   <g id="PathCollection_2">
    <defs>
     <path id="m8cf6065c47" d="M 0 2.738613 
C 0.726289 2.738613 1.422928 2.450055 1.936492 1.936492 
C 2.450055 1.422928 2.738613 0.726289 2.738613 0 
C 2.738613 -0.726289 2.450055 -1.422928 1.936492 -1.936492 
C 1.422928 -2.450055 0.726289 -2.738613 0 -2.738613 
C -0.726289 -2.738613 -1.422928 -2.450055 -1.936492 -1.936492 
C -2.450055 -1.422928 -2.738613 -0.726289 -2.738613 0 
C -2.738613 0.726289 -2.450055 1.422928 -1.936492 1.936492 
C -1.422928 2.450055 -0.726289 2.738613 0 2.738613 
z
" style="stroke: #ff0000"/>
    </defs>
    <g clip-path="url(#p5f12f358a4)">
     <use xlink:href="#m8cf6065c47" x="494.152279" y="306.355138" style="fill: #ff0000; stroke: #ff0000"/>
    </g>
   </g>
   <g id="matplotlib.axis_1">
    <g id="xtick_1">
     <g id="line2d_1">
      <path d="M 39.58149 614.64351 
L 39.58149 6.799459 
" clip-path="url(#p5f12f358a4)" style="fill: none; stroke: #b0b0b0; stroke-width: 0.8; stroke-linecap: square"/>
     </g>
     <g id="line2d_2">
      <defs>
       <path id="m923d047af8" d="M 0 0 
L 0 3.5 
" style="stroke: #000000; stroke-width: 0.8"/>
      </defs>
      <g>
       <use xlink:href="#m923d047af8" x="39.58149" y="614.64351" style="stroke: #000000; stroke-width: 0.8"/>
      </g>
     </g>
     <g id="text_1">
      <!-- 2800 -->
      <g transform="translate(26.85649 629.241948) scale(0.1 -0.1)">
       <defs>
        <path id="DejaVuSans-32" d="M 1228 531 
L 3431 531 
L 3431 0 
L 469 0 
L 469 531 
Q 828 903 1448 1529 
Q 2069 2156 2228 2338 
Q 2531 2678 2651 2914 
Q 2772 3150 2772 3378 
Q 2772 3750 2511 3984 
Q 2250 4219 1831 4219 
Q 1534 4219 1204 4116 
Q 875 4013 500 3803 
L 500 4441 
Q 881 4594 1212 4672 
Q 1544 4750 1819 4750 
Q 2544 4750 2975 4387 
Q 3406 4025 3406 3419 
Q 3406 3131 3298 2873 
Q 3191 2616 2906 2266 
Q 2828 2175 2409 1742 
Q 1991 1309 1228 531 
z
" transform="scale(0.015625)"/>
        <path id="DejaVuSans-38" d="M 2034 2216 
Q 1584 2216 1326 1975 
Q 1069 1734 1069 1313 
Q 1069 891 1326 650 
Q 1584 409 2034 409 
Q 2484 409 2743 651 
Q 3003 894 3003 1313 
Q 3003 1734 2745 1975 
Q 2488 2216 2034 2216 
z
M 1403 2484 
Q 997 2584 770 2862 
Q 544 3141 544 3541 
Q 544 4100 942 4425 
Q 1341 4750 2034 4750 
Q 2731 4750 3128 4425 
Q 3525 4100 3525 3541 
Q 3525 3141 3298 2862 
Q 3072 2584 2669 2484 
Q 3125 2378 3379 2068 
Q 3634 1759 3634 1313 
Q 3634 634 3220 271 
Q 2806 -91 2034 -91 
Q 1263 -91 848 271 
Q 434 634 434 1313 
Q 434 1759 690 2068 
Q 947 2378 1403 2484 
z
M 1172 3481 
Q 1172 3119 1398 2916 
Q 1625 2713 2034 2713 
Q 2441 2713 2670 2916 
Q 2900 3119 2900 3481 
Q 2900 3844 2670 4047 
Q 2441 4250 2034 4250 
Q 1625 4250 1398 4047 
Q 1172 3844 1172 3481 
z
" transform="scale(0.015625)"/>
        <path id="DejaVuSans-30" d="M 2034 4250 
Q 1547 4250 1301 3770 
Q 1056 3291 1056 2328 
Q 1056 1369 1301 889 
Q 1547 409 2034 409 
Q 2525 409 2770 889 
Q 3016 1369 3016 2328 
Q 3016 3291 2770 3770 
Q 2525 4250 2034 4250 
z
M 2034 4750 
Q 2819 4750 3233 4129 
Q 3647 3509 3647 2328 
Q 3647 1150 3233 529 
Q 2819 -91 2034 -91 
Q 1250 -91 836 529 
Q 422 1150 422 2328 
Q 422 3509 836 4129 
Q 1250 4750 2034 4750 
z
" transform="scale(0.015625)"/>
       </defs>
       <use xlink:href="#DejaVuSans-32"/>
       <use xlink:href="#DejaVuSans-38" x="63.623047"/>
       <use xlink:href="#DejaVuSans-30" x="127.246094"/>
       <use xlink:href="#DejaVuSans-30" x="190.869141"/>
      </g>
     </g>
    </g>
    <g id="xtick_2">
     <g id="line2d_3">
      <path d="M 107.631009 614.64351 
L 107.631009 6.799459 
" clip-path="url(#p5f12f358a4)" style="fill: none; stroke: #b0b0b0; stroke-width: 0.8; stroke-linecap: square"/>
     </g>
     <g id="line2d_4">
      <g>
       <use xlink:href="#m923d047af8" x="107.631009" y="614.64351" style="stroke: #000000; stroke-width: 0.8"/>
      </g>
     </g>
     <g id="text_2">
      <!-- 3200 -->
      <g transform="translate(94.906009 629.241948) scale(0.1 -0.1)">
       <defs>
        <path id="DejaVuSans-33" d="M 2597 2516 
Q 3050 2419 3304 2112 
Q 3559 1806 3559 1356 
Q 3559 666 3084 287 
Q 2609 -91 1734 -91 
Q 1441 -91 1130 -33 
Q 819 25 488 141 
L 488 750 
Q 750 597 1062 519 
Q 1375 441 1716 441 
Q 2309 441 2620 675 
Q 2931 909 2931 1356 
Q 2931 1769 2642 2001 
Q 2353 2234 1838 2234 
L 1294 2234 
L 1294 2753 
L 1863 2753 
Q 2328 2753 2575 2939 
Q 2822 3125 2822 3475 
Q 2822 3834 2567 4026 
Q 2313 4219 1838 4219 
Q 1578 4219 1281 4162 
Q 984 4106 628 3988 
L 628 4550 
Q 988 4650 1302 4700 
Q 1616 4750 1894 4750 
Q 2613 4750 3031 4423 
Q 3450 4097 3450 3541 
Q 3450 3153 3228 2886 
Q 3006 2619 2597 2516 
z
" transform="scale(0.015625)"/>
       </defs>
       <use xlink:href="#DejaVuSans-33"/>
       <use xlink:href="#DejaVuSans-32" x="63.623047"/>
       <use xlink:href="#DejaVuSans-30" x="127.246094"/>
       <use xlink:href="#DejaVuSans-30" x="190.869141"/>
      </g>
     </g>
    </g>
    <g id="xtick_3">
     <g id="line2d_5">
      <path d="M 175.680529 614.64351 
L 175.680529 6.799459 
" clip-path="url(#p5f12f358a4)" style="fill: none; stroke: #b0b0b0; stroke-width: 0.8; stroke-linecap: square"/>
     </g>
     <g id="line2d_6">
      <g>
       <use xlink:href="#m923d047af8" x="175.680529" y="614.64351" style="stroke: #000000; stroke-width: 0.8"/>
      </g>
     </g>
     <g id="text_3">
      <!-- 3600 -->
      <g transform="translate(162.955529 629.241948) scale(0.1 -0.1)">
       <defs>
        <path id="DejaVuSans-36" d="M 2113 2584 
Q 1688 2584 1439 2293 
Q 1191 2003 1191 1497 
Q 1191 994 1439 701 
Q 1688 409 2113 409 
Q 2538 409 2786 701 
Q 3034 994 3034 1497 
Q 3034 2003 2786 2293 
Q 2538 2584 2113 2584 
z
M 3366 4563 
L 3366 3988 
Q 3128 4100 2886 4159 
Q 2644 4219 2406 4219 
Q 1781 4219 1451 3797 
Q 1122 3375 1075 2522 
Q 1259 2794 1537 2939 
Q 1816 3084 2150 3084 
Q 2853 3084 3261 2657 
Q 3669 2231 3669 1497 
Q 3669 778 3244 343 
Q 2819 -91 2113 -91 
Q 1303 -91 875 529 
Q 447 1150 447 2328 
Q 447 3434 972 4092 
Q 1497 4750 2381 4750 
Q 2619 4750 2861 4703 
Q 3103 4656 3366 4563 
z
" transform="scale(0.015625)"/>
       </defs>
       <use xlink:href="#DejaVuSans-33"/>
       <use xlink:href="#DejaVuSans-36" x="63.623047"/>
       <use xlink:href="#DejaVuSans-30" x="127.246094"/>
       <use xlink:href="#DejaVuSans-30" x="190.869141"/>
      </g>
     </g>
    </g>
    <g id="xtick_4">
     <g id="line2d_7">
      <path d="M 243.730048 614.64351 
L 243.730048 6.799459 
" clip-path="url(#p5f12f358a4)" style="fill: none; stroke: #b0b0b0; stroke-width: 0.8; stroke-linecap: square"/>
     </g>
     <g id="line2d_8">
      <g>
       <use xlink:href="#m923d047af8" x="243.730048" y="614.64351" style="stroke: #000000; stroke-width: 0.8"/>
      </g>
     </g>
     <g id="text_4">
      <!-- 4000 -->
      <g transform="translate(231.005048 629.241948) scale(0.1 -0.1)">
       <defs>
        <path id="DejaVuSans-34" d="M 2419 4116 
L 825 1625 
L 2419 1625 
L 2419 4116 
z
M 2253 4666 
L 3047 4666 
L 3047 1625 
L 3713 1625 
L 3713 1100 
L 3047 1100 
L 3047 0 
L 2419 0 
L 2419 1100 
L 313 1100 
L 313 1709 
L 2253 4666 
z
" transform="scale(0.015625)"/>
       </defs>
       <use xlink:href="#DejaVuSans-34"/>
       <use xlink:href="#DejaVuSans-30" x="63.623047"/>
       <use xlink:href="#DejaVuSans-30" x="127.246094"/>
       <use xlink:href="#DejaVuSans-30" x="190.869141"/>
      </g>
     </g>
    </g>
    <g id="xtick_5">
     <g id="line2d_9">
      <path d="M 311.779567 614.64351 
L 311.779567 6.799459 
" clip-path="url(#p5f12f358a4)" style="fill: none; stroke: #b0b0b0; stroke-width: 0.8; stroke-linecap: square"/>
     </g>
     <g id="line2d_10">
      <g>
       <use xlink:href="#m923d047af8" x="311.779567" y="614.64351" style="stroke: #000000; stroke-width: 0.8"/>
      </g>
     </g>
     <g id="text_5">
      <!-- 4400 -->
      <g transform="translate(299.054567 629.241948) scale(0.1 -0.1)">
       <use xlink:href="#DejaVuSans-34"/>
       <use xlink:href="#DejaVuSans-34" x="63.623047"/>
       <use xlink:href="#DejaVuSans-30" x="127.246094"/>
       <use xlink:href="#DejaVuSans-30" x="190.869141"/>
      </g>
     </g>
    </g>
    <g id="xtick_6">
     <g id="line2d_11">
      <path d="M 379.829086 614.64351 
L 379.829086 6.799459 
" clip-path="url(#p5f12f358a4)" style="fill: none; stroke: #b0b0b0; stroke-width: 0.8; stroke-linecap: square"/>
     </g>
     <g id="line2d_12">
      <g>
       <use xlink:href="#m923d047af8" x="379.829086" y="614.64351" style="stroke: #000000; stroke-width: 0.8"/>
      </g>
     </g>
     <g id="text_6">
      <!-- 4800 -->
      <g transform="translate(367.104086 629.241948) scale(0.1 -0.1)">
       <use xlink:href="#DejaVuSans-34"/>
       <use xlink:href="#DejaVuSans-38" x="63.623047"/>
       <use xlink:href="#DejaVuSans-30" x="127.246094"/>
       <use xlink:href="#DejaVuSans-30" x="190.869141"/>
      </g>
     </g>
    </g>
    <g id="xtick_7">
     <g id="line2d_13">
      <path d="M 447.878606 614.64351 
L 447.878606 6.799459 
" clip-path="url(#p5f12f358a4)" style="fill: none; stroke: #b0b0b0; stroke-width: 0.8; stroke-linecap: square"/>
     </g>
     <g id="line2d_14">
      <g>
       <use xlink:href="#m923d047af8" x="447.878606" y="614.64351" style="stroke: #000000; stroke-width: 0.8"/>
      </g>
     </g>
     <g id="text_7">
      <!-- 5200 -->
      <g transform="translate(435.153606 629.241948) scale(0.1 -0.1)">
       <defs>
        <path id="DejaVuSans-35" d="M 691 4666 
L 3169 4666 
L 3169 4134 
L 1269 4134 
L 1269 2991 
Q 1406 3038 1543 3061 
Q 1681 3084 1819 3084 
Q 2600 3084 3056 2656 
Q 3513 2228 3513 1497 
Q 3513 744 3044 326 
Q 2575 -91 1722 -91 
Q 1428 -91 1123 -41 
Q 819 9 494 109 
L 494 744 
Q 775 591 1075 516 
Q 1375 441 1709 441 
Q 2250 441 2565 725 
Q 2881 1009 2881 1497 
Q 2881 1984 2565 2268 
Q 2250 2553 1709 2553 
Q 1456 2553 1204 2497 
Q 953 2441 691 2322 
L 691 4666 
z
" transform="scale(0.015625)"/>
       </defs>
       <use xlink:href="#DejaVuSans-35"/>
       <use xlink:href="#DejaVuSans-32" x="63.623047"/>
       <use xlink:href="#DejaVuSans-30" x="127.246094"/>
       <use xlink:href="#DejaVuSans-30" x="190.869141"/>
      </g>
     </g>
    </g>
    <g id="xtick_8">
     <g id="line2d_15">
      <path d="M 515.928125 614.64351 
L 515.928125 6.799459 
" clip-path="url(#p5f12f358a4)" style="fill: none; stroke: #b0b0b0; stroke-width: 0.8; stroke-linecap: square"/>
     </g>
     <g id="line2d_16">
      <g>
       <use xlink:href="#m923d047af8" x="515.928125" y="614.64351" style="stroke: #000000; stroke-width: 0.8"/>
      </g>
     </g>
     <g id="text_8">
      <!-- 5600 -->
      <g transform="translate(503.203125 629.241948) scale(0.1 -0.1)">
       <use xlink:href="#DejaVuSans-35"/>
       <use xlink:href="#DejaVuSans-36" x="63.623047"/>
       <use xlink:href="#DejaVuSans-30" x="127.246094"/>
       <use xlink:href="#DejaVuSans-30" x="190.869141"/>
      </g>
     </g>
    </g>
    <g id="xtick_9">
     <g id="line2d_17">
      <path d="M 583.977644 614.64351 
L 583.977644 6.799459 
" clip-path="url(#p5f12f358a4)" style="fill: none; stroke: #b0b0b0; stroke-width: 0.8; stroke-linecap: square"/>
     </g>
     <g id="line2d_18">
      <g>
       <use xlink:href="#m923d047af8" x="583.977644" y="614.64351" style="stroke: #000000; stroke-width: 0.8"/>
      </g>
     </g>
     <g id="text_9">
      <!-- 6000 -->
      <g transform="translate(571.252644 629.241948) scale(0.1 -0.1)">
       <use xlink:href="#DejaVuSans-36"/>
       <use xlink:href="#DejaVuSans-30" x="63.623047"/>
       <use xlink:href="#DejaVuSans-30" x="127.246094"/>
       <use xlink:href="#DejaVuSans-30" x="190.869141"/>
      </g>
     </g>
    </g>
    <g id="xtick_10">
     <g id="line2d_19">
      <path d="M 652.027164 614.64351 
L 652.027164 6.799459 
" clip-path="url(#p5f12f358a4)" style="fill: none; stroke: #b0b0b0; stroke-width: 0.8; stroke-linecap: square"/>
     </g>
     <g id="line2d_20">
      <g>
       <use xlink:href="#m923d047af8" x="652.027164" y="614.64351" style="stroke: #000000; stroke-width: 0.8"/>
      </g>
     </g>
     <g id="text_10">
      <!-- 6400 -->
      <g transform="translate(639.302164 629.241948) scale(0.1 -0.1)">
       <use xlink:href="#DejaVuSans-36"/>
       <use xlink:href="#DejaVuSans-34" x="63.623047"/>
       <use xlink:href="#DejaVuSans-30" x="127.246094"/>
       <use xlink:href="#DejaVuSans-30" x="190.869141"/>
      </g>
     </g>
    </g>
    <g id="xtick_11">
     <g id="line2d_21">
      <path d="M 720.076683 614.64351 
L 720.076683 6.799459 
" clip-path="url(#p5f12f358a4)" style="fill: none; stroke: #b0b0b0; stroke-width: 0.8; stroke-linecap: square"/>
     </g>
     <g id="line2d_22">
      <g>
       <use xlink:href="#m923d047af8" x="720.076683" y="614.64351" style="stroke: #000000; stroke-width: 0.8"/>
      </g>
     </g>
     <g id="text_11">
      <!-- 6800 -->
      <g transform="translate(707.351683 629.241948) scale(0.1 -0.1)">
       <use xlink:href="#DejaVuSans-36"/>
       <use xlink:href="#DejaVuSans-38" x="63.623047"/>
       <use xlink:href="#DejaVuSans-30" x="127.246094"/>
       <use xlink:href="#DejaVuSans-30" x="190.869141"/>
      </g>
     </g>
    </g>
    <g id="xtick_12">
     <g id="line2d_23">
      <path d="M 788.126202 614.64351 
L 788.126202 6.799459 
" clip-path="url(#p5f12f358a4)" style="fill: none; stroke: #b0b0b0; stroke-width: 0.8; stroke-linecap: square"/>
     </g>
     <g id="line2d_24">
      <g>
       <use xlink:href="#m923d047af8" x="788.126202" y="614.64351" style="stroke: #000000; stroke-width: 0.8"/>
      </g>
     </g>
     <g id="text_12">
      <!-- 7200 -->
      <g transform="translate(775.401202 629.241948) scale(0.1 -0.1)">
       <defs>
        <path id="DejaVuSans-37" d="M 525 4666 
L 3525 4666 
L 3525 4397 
L 1831 0 
L 1172 0 
L 2766 4134 
L 525 4134 
L 525 4666 
z
" transform="scale(0.015625)"/>
       </defs>
       <use xlink:href="#DejaVuSans-37"/>
       <use xlink:href="#DejaVuSans-32" x="63.623047"/>
       <use xlink:href="#DejaVuSans-30" x="127.246094"/>
       <use xlink:href="#DejaVuSans-30" x="190.869141"/>
      </g>
     </g>
    </g>
    <g id="xtick_13">
     <g id="line2d_25">
      <path d="M 856.175721 614.64351 
L 856.175721 6.799459 
" clip-path="url(#p5f12f358a4)" style="fill: none; stroke: #b0b0b0; stroke-width: 0.8; stroke-linecap: square"/>
     </g>
     <g id="line2d_26">
      <g>
       <use xlink:href="#m923d047af8" x="856.175721" y="614.64351" style="stroke: #000000; stroke-width: 0.8"/>
      </g>
     </g>
     <g id="text_13">
      <!-- 7600 -->
      <g transform="translate(843.450721 629.241948) scale(0.1 -0.1)">
       <use xlink:href="#DejaVuSans-37"/>
       <use xlink:href="#DejaVuSans-36" x="63.623047"/>
       <use xlink:href="#DejaVuSans-30" x="127.246094"/>
       <use xlink:href="#DejaVuSans-30" x="190.869141"/>
      </g>
     </g>
    </g>
    <g id="xtick_14">
     <g id="line2d_27">
      <path d="M 924.225241 614.64351 
L 924.225241 6.799459 
" clip-path="url(#p5f12f358a4)" style="fill: none; stroke: #b0b0b0; stroke-width: 0.8; stroke-linecap: square"/>
     </g>
     <g id="line2d_28">
      <g>
       <use xlink:href="#m923d047af8" x="924.225241" y="614.64351" style="stroke: #000000; stroke-width: 0.8"/>
      </g>
     </g>
     <g id="text_14">
      <!-- 8000 -->
      <g transform="translate(911.500241 629.241948) scale(0.1 -0.1)">
       <use xlink:href="#DejaVuSans-38"/>
       <use xlink:href="#DejaVuSans-30" x="63.623047"/>
       <use xlink:href="#DejaVuSans-30" x="127.246094"/>
       <use xlink:href="#DejaVuSans-30" x="190.869141"/>
      </g>
     </g>
    </g>
    <g id="xtick_15">
     <g id="line2d_29">
      <path d="M 992.27476 614.64351 
L 992.27476 6.799459 
" clip-path="url(#p5f12f358a4)" style="fill: none; stroke: #b0b0b0; stroke-width: 0.8; stroke-linecap: square"/>
     </g>
     <g id="line2d_30">
      <g>
       <use xlink:href="#m923d047af8" x="992.27476" y="614.64351" style="stroke: #000000; stroke-width: 0.8"/>
      </g>
     </g>
     <g id="text_15">
      <!-- 8400 -->
      <g transform="translate(979.54976 629.241948) scale(0.1 -0.1)">
       <use xlink:href="#DejaVuSans-38"/>
       <use xlink:href="#DejaVuSans-34" x="63.623047"/>
       <use xlink:href="#DejaVuSans-30" x="127.246094"/>
       <use xlink:href="#DejaVuSans-30" x="190.869141"/>
      </g>
     </g>
    </g>
    <g id="text_16">
     <!-- W/S [N/m^2] -->
     <g transform="translate(482.96875 642.920072) scale(0.1 -0.1)">
      <defs>
       <path id="DejaVuSans-57" d="M 213 4666 
L 850 4666 
L 1831 722 
L 2809 4666 
L 3519 4666 
L 4500 722 
L 5478 4666 
L 6119 4666 
L 4947 0 
L 4153 0 
L 3169 4050 
L 2175 0 
L 1381 0 
L 213 4666 
z
" transform="scale(0.015625)"/>
       <path id="DejaVuSans-2f" d="M 1625 4666 
L 2156 4666 
L 531 -594 
L 0 -594 
L 1625 4666 
z
" transform="scale(0.015625)"/>
       <path id="DejaVuSans-53" d="M 3425 4513 
L 3425 3897 
Q 3066 4069 2747 4153 
Q 2428 4238 2131 4238 
Q 1616 4238 1336 4038 
Q 1056 3838 1056 3469 
Q 1056 3159 1242 3001 
Q 1428 2844 1947 2747 
L 2328 2669 
Q 3034 2534 3370 2195 
Q 3706 1856 3706 1288 
Q 3706 609 3251 259 
Q 2797 -91 1919 -91 
Q 1588 -91 1214 -16 
Q 841 59 441 206 
L 441 856 
Q 825 641 1194 531 
Q 1563 422 1919 422 
Q 2459 422 2753 634 
Q 3047 847 3047 1241 
Q 3047 1584 2836 1778 
Q 2625 1972 2144 2069 
L 1759 2144 
Q 1053 2284 737 2584 
Q 422 2884 422 3419 
Q 422 4038 858 4394 
Q 1294 4750 2059 4750 
Q 2388 4750 2728 4690 
Q 3069 4631 3425 4513 
z
" transform="scale(0.015625)"/>
       <path id="DejaVuSans-20" transform="scale(0.015625)"/>
       <path id="DejaVuSans-5b" d="M 550 4863 
L 1875 4863 
L 1875 4416 
L 1125 4416 
L 1125 -397 
L 1875 -397 
L 1875 -844 
L 550 -844 
L 550 4863 
z
" transform="scale(0.015625)"/>
       <path id="DejaVuSans-4e" d="M 628 4666 
L 1478 4666 
L 3547 763 
L 3547 4666 
L 4159 4666 
L 4159 0 
L 3309 0 
L 1241 3903 
L 1241 0 
L 628 0 
L 628 4666 
z
" transform="scale(0.015625)"/>
       <path id="DejaVuSans-6d" d="M 3328 2828 
Q 3544 3216 3844 3400 
Q 4144 3584 4550 3584 
Q 5097 3584 5394 3201 
Q 5691 2819 5691 2113 
L 5691 0 
L 5113 0 
L 5113 2094 
Q 5113 2597 4934 2840 
Q 4756 3084 4391 3084 
Q 3944 3084 3684 2787 
Q 3425 2491 3425 1978 
L 3425 0 
L 2847 0 
L 2847 2094 
Q 2847 2600 2669 2842 
Q 2491 3084 2119 3084 
Q 1678 3084 1418 2786 
Q 1159 2488 1159 1978 
L 1159 0 
L 581 0 
L 581 3500 
L 1159 3500 
L 1159 2956 
Q 1356 3278 1631 3431 
Q 1906 3584 2284 3584 
Q 2666 3584 2933 3390 
Q 3200 3197 3328 2828 
z
" transform="scale(0.015625)"/>
       <path id="DejaVuSans-5e" d="M 2988 4666 
L 4684 2925 
L 4056 2925 
L 2681 4159 
L 1306 2925 
L 678 2925 
L 2375 4666 
L 2988 4666 
z
" transform="scale(0.015625)"/>
       <path id="DejaVuSans-5d" d="M 1947 4863 
L 1947 -844 
L 622 -844 
L 622 -397 
L 1369 -397 
L 1369 4416 
L 622 4416 
L 622 4863 
L 1947 4863 
z
" transform="scale(0.015625)"/>
      </defs>
      <use xlink:href="#DejaVuSans-57"/>
      <use xlink:href="#DejaVuSans-2f" x="98.876953"/>
      <use xlink:href="#DejaVuSans-53" x="132.568359"/>
      <use xlink:href="#DejaVuSans-20" x="196.044922"/>
      <use xlink:href="#DejaVuSans-5b" x="227.832031"/>
      <use xlink:href="#DejaVuSans-4e" x="266.845703"/>
      <use xlink:href="#DejaVuSans-2f" x="341.650391"/>
      <use xlink:href="#DejaVuSans-6d" x="375.341797"/>
      <use xlink:href="#DejaVuSans-5e" x="472.753906"/>
      <use xlink:href="#DejaVuSans-32" x="556.542969"/>
      <use xlink:href="#DejaVuSans-5d" x="620.166016"/>
     </g>
    </g>
   </g>
   <g id="matplotlib.axis_2">
    <g id="ytick_1">
     <g id="line2d_31">
      <path d="M 39.58149 614.64351 
L 992.27476 614.64351 
" clip-path="url(#p5f12f358a4)" style="fill: none; stroke: #b0b0b0; stroke-width: 0.8; stroke-linecap: square"/>
     </g>
     <g id="line2d_32">
      <defs>
       <path id="mbffbd63648" d="M 0 0 
L -3.5 0 
" style="stroke: #000000; stroke-width: 0.8"/>
      </defs>
      <g>
       <use xlink:href="#mbffbd63648" x="39.58149" y="614.64351" style="stroke: #000000; stroke-width: 0.8"/>
      </g>
     </g>
     <g id="text_17">
      <!-- 0.0 -->
      <g transform="translate(16.678365 618.442729) scale(0.1 -0.1)">
       <defs>
        <path id="DejaVuSans-2e" d="M 684 794 
L 1344 794 
L 1344 0 
L 684 0 
L 684 794 
z
" transform="scale(0.015625)"/>
       </defs>
       <use xlink:href="#DejaVuSans-30"/>
       <use xlink:href="#DejaVuSans-2e" x="63.623047"/>
       <use xlink:href="#DejaVuSans-30" x="95.410156"/>
      </g>
     </g>
    </g>
    <g id="ytick_2">
     <g id="line2d_33">
      <path d="M 39.58149 513.336168 
L 992.27476 513.336168 
" clip-path="url(#p5f12f358a4)" style="fill: none; stroke: #b0b0b0; stroke-width: 0.8; stroke-linecap: square"/>
     </g>
     <g id="line2d_34">
      <g>
       <use xlink:href="#mbffbd63648" x="39.58149" y="513.336168" style="stroke: #000000; stroke-width: 0.8"/>
      </g>
     </g>
     <g id="text_18">
      <!-- 0.1 -->
      <g transform="translate(16.678365 517.135387) scale(0.1 -0.1)">
       <defs>
        <path id="DejaVuSans-31" d="M 794 531 
L 1825 531 
L 1825 4091 
L 703 3866 
L 703 4441 
L 1819 4666 
L 2450 4666 
L 2450 531 
L 3481 531 
L 3481 0 
L 794 0 
L 794 531 
z
" transform="scale(0.015625)"/>
       </defs>
       <use xlink:href="#DejaVuSans-30"/>
       <use xlink:href="#DejaVuSans-2e" x="63.623047"/>
       <use xlink:href="#DejaVuSans-31" x="95.410156"/>
      </g>
     </g>
    </g>
    <g id="ytick_3">
     <g id="line2d_35">
      <path d="M 39.58149 412.028826 
L 992.27476 412.028826 
" clip-path="url(#p5f12f358a4)" style="fill: none; stroke: #b0b0b0; stroke-width: 0.8; stroke-linecap: square"/>
     </g>
     <g id="line2d_36">
      <g>
       <use xlink:href="#mbffbd63648" x="39.58149" y="412.028826" style="stroke: #000000; stroke-width: 0.8"/>
      </g>
     </g>
     <g id="text_19">
      <!-- 0.2 -->
      <g transform="translate(16.678365 415.828045) scale(0.1 -0.1)">
       <use xlink:href="#DejaVuSans-30"/>
       <use xlink:href="#DejaVuSans-2e" x="63.623047"/>
       <use xlink:href="#DejaVuSans-32" x="95.410156"/>
      </g>
     </g>
    </g>
    <g id="ytick_4">
     <g id="line2d_37">
      <path d="M 39.58149 310.721484 
L 992.27476 310.721484 
" clip-path="url(#p5f12f358a4)" style="fill: none; stroke: #b0b0b0; stroke-width: 0.8; stroke-linecap: square"/>
     </g>
     <g id="line2d_38">
      <g>
       <use xlink:href="#mbffbd63648" x="39.58149" y="310.721484" style="stroke: #000000; stroke-width: 0.8"/>
      </g>
     </g>
     <g id="text_20">
      <!-- 0.3 -->
      <g transform="translate(16.678365 314.520703) scale(0.1 -0.1)">
       <use xlink:href="#DejaVuSans-30"/>
       <use xlink:href="#DejaVuSans-2e" x="63.623047"/>
       <use xlink:href="#DejaVuSans-33" x="95.410156"/>
      </g>
     </g>
    </g>
    <g id="ytick_5">
     <g id="line2d_39">
      <path d="M 39.58149 209.414143 
L 992.27476 209.414143 
" clip-path="url(#p5f12f358a4)" style="fill: none; stroke: #b0b0b0; stroke-width: 0.8; stroke-linecap: square"/>
     </g>
     <g id="line2d_40">
      <g>
       <use xlink:href="#mbffbd63648" x="39.58149" y="209.414143" style="stroke: #000000; stroke-width: 0.8"/>
      </g>
     </g>
     <g id="text_21">
      <!-- 0.4 -->
      <g transform="translate(16.678365 213.213361) scale(0.1 -0.1)">
       <use xlink:href="#DejaVuSans-30"/>
       <use xlink:href="#DejaVuSans-2e" x="63.623047"/>
       <use xlink:href="#DejaVuSans-34" x="95.410156"/>
      </g>
     </g>
    </g>
    <g id="ytick_6">
     <g id="line2d_41">
      <path d="M 39.58149 108.106801 
L 992.27476 108.106801 
" clip-path="url(#p5f12f358a4)" style="fill: none; stroke: #b0b0b0; stroke-width: 0.8; stroke-linecap: square"/>
     </g>
     <g id="line2d_42">
      <g>
       <use xlink:href="#mbffbd63648" x="39.58149" y="108.106801" style="stroke: #000000; stroke-width: 0.8"/>
      </g>
     </g>
     <g id="text_22">
      <!-- 0.5 -->
      <g transform="translate(16.678365 111.906019) scale(0.1 -0.1)">
       <use xlink:href="#DejaVuSans-30"/>
       <use xlink:href="#DejaVuSans-2e" x="63.623047"/>
       <use xlink:href="#DejaVuSans-35" x="95.410156"/>
      </g>
     </g>
    </g>
    <g id="ytick_7">
     <g id="line2d_43">
      <path d="M 39.58149 6.799459 
L 992.27476 6.799459 
" clip-path="url(#p5f12f358a4)" style="fill: none; stroke: #b0b0b0; stroke-width: 0.8; stroke-linecap: square"/>
     </g>
     <g id="line2d_44">
      <g>
       <use xlink:href="#mbffbd63648" x="39.58149" y="6.799459" style="stroke: #000000; stroke-width: 0.8"/>
      </g>
     </g>
     <g id="text_23">
      <!-- 0.6 -->
      <g transform="translate(16.678365 10.598678) scale(0.1 -0.1)">
       <use xlink:href="#DejaVuSans-30"/>
       <use xlink:href="#DejaVuSans-2e" x="63.623047"/>
       <use xlink:href="#DejaVuSans-36" x="95.410156"/>
      </g>
     </g>
    </g>
    <g id="text_24">
     <!-- T/W [N/N] -->
     <g transform="translate(10.598678 335.059766) rotate(-90) scale(0.1 -0.1)">
      <defs>
       <path id="DejaVuSans-54" d="M -19 4666 
L 3928 4666 
L 3928 4134 
L 2272 4134 
L 2272 0 
L 1638 0 
L 1638 4134 
L -19 4134 
L -19 4666 
z
" transform="scale(0.015625)"/>
      </defs>
      <use xlink:href="#DejaVuSans-54"/>
      <use xlink:href="#DejaVuSans-2f" x="61.083984"/>
      <use xlink:href="#DejaVuSans-57" x="94.775391"/>
      <use xlink:href="#DejaVuSans-20" x="193.652344"/>
      <use xlink:href="#DejaVuSans-5b" x="225.439453"/>
      <use xlink:href="#DejaVuSans-4e" x="264.453125"/>
      <use xlink:href="#DejaVuSans-2f" x="339.257812"/>
      <use xlink:href="#DejaVuSans-4e" x="372.949219"/>
      <use xlink:href="#DejaVuSans-5d" x="447.753906"/>
     </g>
    </g>
   </g>
   <g id="line2d_45">
    <path d="M -1 504.35104 
L 5.55673 503.832984 
L 22.56911 502.51837 
L 39.58149 501.231576 
L 56.59387 499.971027 
L 73.60625 498.735284 
L 90.618629 497.523032 
L 107.631009 496.333062 
L 124.643389 495.164263 
L 141.655769 494.015609 
L 158.668149 492.88615 
L 175.680529 491.775008 
L 192.692908 490.681364 
L 209.705288 489.604458 
L 226.717668 488.54358 
L 243.730048 487.498068 
L 260.742428 486.4673 
L 277.754808 485.450694 
L 294.767187 484.447705 
L 311.779567 483.457818 
L 328.791947 482.48055 
L 345.804327 481.515444 
L 362.816707 480.562069 
L 379.829086 479.62002 
L 396.841466 478.688909 
L 413.853846 477.768371 
L 430.866226 476.858061 
L 447.878606 475.95765 
L 464.890986 475.066825 
L 481.903365 474.185288 
L 498.915745 473.312756 
L 515.928125 472.44896 
L 532.940505 471.593641 
L 549.952885 470.746554 
L 566.965264 469.907465 
L 583.977644 469.076148 
L 600.990024 468.252388 
L 618.002404 467.43598 
L 635.014784 466.626727 
L 652.027164 465.824439 
L 669.039543 465.028935 
L 686.051923 464.240041 
L 703.064303 463.457588 
L 720.076683 462.681417 
L 737.089063 461.911373 
L 754.101443 461.147306 
L 771.113822 460.389073 
L 788.126202 459.636536 
L 805.138582 458.889561 
L 822.150962 458.148021 
L 839.163342 457.41179 
L 856.175721 456.696108 
L 873.188101 456.044496 
L 890.200481 455.398766 
L 907.212861 454.7588 
L 924.225241 454.124486 
L 941.237621 453.495716 
L 958.25 452.872384 
L 975.26238 452.254388 
L 992.27476 451.64163 
L 1009 451.044269 
" clip-path="url(#p5f12f358a4)" style="fill: none; stroke: #008000; stroke-width: 1.5; stroke-linecap: square"/>
   </g>
   <g id="line2d_46">
    <path d="M -1 377.288193 
L 5.55673 377.065329 
L 22.56911 376.505357 
L 39.58149 375.962568 
L 56.59387 375.435965 
L 73.60625 374.924642 
L 90.618629 374.427771 
L 107.631009 373.944598 
L 124.643389 373.474426 
L 141.655769 373.016618 
L 158.668149 372.570584 
L 175.680529 372.135779 
L 192.692908 371.711698 
L 209.705288 371.29787 
L 226.717668 370.89386 
L 243.730048 370.499259 
L 260.742428 370.113686 
L 277.754808 369.736786 
L 294.767187 369.368225 
L 311.779567 369.007688 
L 328.791947 368.65488 
L 345.804327 368.309525 
L 362.816707 367.97136 
L 379.829086 367.640137 
L 396.841466 367.315623 
L 413.853846 366.997597 
L 430.866226 366.685849 
L 447.878606 366.38018 
L 464.890986 366.080401 
L 481.903365 365.786333 
L 498.915745 365.497805 
L 515.928125 365.214653 
L 532.940505 364.936724 
L 549.952885 364.663869 
L 566.965264 364.395946 
L 583.977644 364.132821 
L 600.990024 363.874364 
L 618.002404 363.620453 
L 635.014784 363.370967 
L 652.027164 363.125795 
L 669.039543 362.884826 
L 686.051923 362.647957 
L 703.064303 362.415087 
L 720.076683 362.18612 
L 737.089063 361.960963 
L 754.101443 361.739526 
L 771.113822 361.521724 
L 788.126202 361.307474 
L 805.138582 361.096696 
L 822.150962 360.889313 
L 839.163342 360.685252 
L 856.175721 360.484439 
L 873.188101 360.286807 
L 890.200481 360.092287 
L 907.212861 359.900817 
L 924.225241 359.712332 
L 941.237621 359.526773 
L 958.25 359.344081 
L 975.26238 359.1642 
L 992.27476 358.987074 
L 1009 358.815594 
" clip-path="url(#p5f12f358a4)" style="fill: none; stroke: #1f77b4; stroke-width: 1.5; stroke-linecap: square"/>
   </g>
   <g id="line2d_47">
    <path d="M -1 361.29581 
L 5.55673 361.053277 
L 22.56911 360.444856 
L 39.58149 359.856051 
L 56.59387 359.285729 
L 73.60625 358.732858 
L 90.618629 358.1965 
L 107.631009 357.675792 
L 124.643389 357.169946 
L 141.655769 356.678232 
L 158.668149 356.199981 
L 175.680529 355.734571 
L 192.692908 355.281427 
L 209.705288 354.840012 
L 226.717668 354.409829 
L 243.730048 353.990414 
L 260.742428 353.581331 
L 277.754808 353.182175 
L 294.767187 352.792564 
L 311.779567 352.412139 
L 328.791947 352.040564 
L 345.804327 351.677523 
L 362.816707 351.322714 
L 379.829086 350.975857 
L 396.841466 350.636683 
L 413.853846 350.30494 
L 430.866226 349.980387 
L 447.878606 349.662798 
L 464.890986 349.351956 
L 481.903365 349.047656 
L 498.915745 348.749701 
L 515.928125 348.457907 
L 532.940505 348.172094 
L 549.952885 347.892094 
L 566.965264 347.617745 
L 583.977644 347.348892 
L 600.990024 347.085386 
L 618.002404 346.827086 
L 635.014784 346.573856 
L 652.027164 346.325567 
L 669.039543 346.082092 
L 686.051923 345.843312 
L 703.064303 345.609113 
L 720.076683 345.379382 
L 737.089063 345.154013 
L 754.101443 344.932905 
L 771.113822 344.715958 
L 788.126202 344.503077 
L 805.138582 344.29417 
L 822.150962 344.08915 
L 839.163342 343.88793 
L 856.175721 343.690428 
L 873.188101 343.496564 
L 890.200481 343.306262 
L 907.212861 343.119448 
L 924.225241 342.936048 
L 941.237621 342.755994 
L 958.25 342.579219 
L 975.26238 342.405656 
L 992.27476 342.235243 
L 1009 342.070743 
" clip-path="url(#p5f12f358a4)" style="fill: none; stroke: #ff7f0e; stroke-width: 1.5; stroke-linecap: square"/>
   </g>
   <g id="line2d_48">
    <path d="M -1 448.364785 
L 5.55673 448.204884 
L 22.56911 447.805613 
L 39.58149 447.421025 
L 56.59387 447.05028 
L 73.60625 446.692608 
L 90.618629 446.34731 
L 107.631009 446.013743 
L 124.643389 445.691319 
L 141.655769 445.379493 
L 158.668149 445.077765 
L 175.680529 444.785669 
L 192.692908 444.502775 
L 209.705288 444.228683 
L 226.717668 443.963019 
L 243.730048 443.705434 
L 260.742428 443.455604 
L 277.754808 443.213222 
L 294.767187 442.978002 
L 311.779567 442.749675 
L 328.791947 442.527988 
L 345.804327 442.312703 
L 362.816707 442.103593 
L 379.829086 441.900446 
L 396.841466 441.70306 
L 413.853846 441.511245 
L 430.866226 441.32482 
L 447.878606 441.143612 
L 464.890986 440.96746 
L 481.903365 440.796206 
L 498.915745 440.629704 
L 515.928125 440.467812 
L 532.940505 440.310395 
L 549.952885 440.157327 
L 566.965264 440.008482 
L 583.977644 439.863746 
L 600.990024 439.723004 
L 618.002404 439.586149 
L 635.014784 439.453078 
L 652.027164 439.323693 
L 669.039543 439.197898 
L 686.051923 439.075602 
L 703.064303 438.956717 
L 720.076683 438.841159 
L 737.089063 438.728847 
L 754.101443 438.619703 
L 771.113822 438.513651 
L 788.126202 438.410619 
L 805.138582 438.310537 
L 822.150962 438.213338 
L 839.163342 438.118955 
L 856.175721 438.027327 
L 873.188101 437.938392 
L 890.200481 437.852092 
L 907.212861 437.768369 
L 924.225241 437.68717 
L 941.237621 437.608439 
L 958.25 437.532126 
L 975.26238 437.458181 
L 992.27476 437.386555 
L 1009 437.318372 
" clip-path="url(#p5f12f358a4)" style="fill: none; stroke: #2ca02c; stroke-width: 1.5; stroke-linecap: square"/>
   </g>
   <g id="line2d_49">
    <path d="M -1 346.707382 
L 5.55673 347.967784 
L 22.56911 351.060622 
L 39.58149 353.991942 
L 56.59387 356.77575 
L 73.60625 359.424407 
L 90.618629 361.948868 
L 107.631009 364.358888 
L 124.643389 366.663179 
L 141.655769 368.869551 
L 158.668149 370.985031 
L 175.680529 373.015958 
L 192.692908 374.876643 
L 209.705288 376.467127 
L 226.717668 377.991838 
L 243.730048 379.454902 
L 260.742428 380.860086 
L 277.754808 382.210844 
L 294.767187 383.510345 
L 311.779567 384.761505 
L 328.791947 385.967013 
L 345.804327 387.12935 
L 362.816707 388.25081 
L 379.829086 389.333522 
L 396.841466 390.379459 
L 413.853846 391.390456 
L 430.866226 392.368221 
L 447.878606 393.314345 
L 464.890986 394.230316 
L 481.903365 395.117521 
L 498.915745 395.977262 
L 515.928125 396.810755 
L 532.940505 397.619143 
L 549.952885 398.403501 
L 566.965264 399.164836 
L 583.977644 399.904097 
L 600.990024 400.622181 
L 618.002404 401.319929 
L 635.014784 401.998138 
L 652.027164 402.657561 
L 669.039543 403.298909 
L 686.051923 403.922855 
L 703.064303 404.530037 
L 720.076683 405.121059 
L 737.089063 405.696495 
L 754.101443 406.25689 
L 771.113822 406.80276 
L 788.126202 407.334598 
L 805.138582 407.852871 
L 822.150962 408.358026 
L 839.163342 408.850486 
L 856.175721 409.330657 
L 873.188101 409.798924 
L 890.200481 410.255656 
L 907.212861 410.701205 
L 924.225241 411.135907 
L 941.237621 411.560084 
L 958.25 411.974042 
L 975.26238 412.378078 
L 992.27476 412.772471 
L 1009 413.150994 
" clip-path="url(#p5f12f358a4)" style="fill: none; stroke: #ffff00; stroke-width: 1.5; stroke-linecap: square"/>
   </g>
   <g id="line2d_50">
    <path d="M -1 201.8225 
L 5.55673 208.090079 
L 22.56911 223.147614 
L 39.58149 237.12961 
L 56.59387 250.147331 
L 73.60625 262.297203 
L 90.618629 273.663213 
L 107.631009 284.318848 
L 124.643389 294.328686 
L 141.655769 303.74971 
L 158.668149 312.63239 
L 175.680529 321.021588 
L 192.692908 328.957315 
L 209.705288 336.475373 
L 226.717668 343.60789 
L 243.730048 350.38378 
L 260.742428 356.829139 
L 277.754808 362.967577 
L 294.767187 368.820505 
L 311.779567 374.407392 
L 328.791947 379.745972 
L 345.804327 384.852441 
L 362.816707 389.741612 
L 379.829086 394.427068 
L 396.841466 398.921281 
L 413.853846 403.235726 
L 430.866226 407.380977 
L 447.878606 411.366795 
L 464.890986 415.202204 
L 481.903365 418.895562 
L 498.915745 422.454616 
L 515.928125 425.88656 
L 532.940505 429.198085 
L 549.952885 432.39542 
L 566.965264 435.484371 
L 583.977644 438.470357 
L 600.990024 441.358441 
L 618.002404 444.153362 
L 635.014784 446.859554 
L 652.027164 449.481179 
L 669.039543 452.022138 
L 686.051923 454.486098 
L 703.064303 456.876507 
L 720.076683 459.19661 
L 737.089063 461.449464 
L 754.101443 463.63795 
L 771.113822 465.764789 
L 788.126202 467.832549 
L 805.138582 469.843658 
L 822.150962 471.800413 
L 839.163342 473.704987 
L 856.175721 475.559442 
L 873.188101 477.365728 
L 890.200481 479.1257 
L 907.212861 480.841115 
L 924.225241 482.513645 
L 941.237621 484.144878 
L 958.25 485.736325 
L 975.26238 487.289423 
L 992.27476 488.805543 
L 1009 490.261003 
" clip-path="url(#p5f12f358a4)" style="fill: none; stroke: #800080; stroke-width: 1.5; stroke-linecap: square"/>
   </g>
   <g id="LineCollection_1">
    <path d="M 494.177853 614.64351 
L 494.177853 -1 
" clip-path="url(#p5f12f358a4)" style="fill: none; stroke: #ffa500; stroke-width: 1.5"/>
   </g>
   <g id="line2d_51">
    <path d="M -1 437.15617 
L 5.55673 436.994022 
L 22.56911 436.586115 
L 39.58149 436.190245 
L 56.59387 435.80571 
L 73.60625 435.431872 
L 90.618629 435.068151 
L 107.631009 434.714015 
L 124.643389 434.368976 
L 141.655769 434.032584 
L 158.668149 433.704427 
L 175.680529 433.38412 
L 192.692908 433.07131 
L 209.705288 432.765666 
L 226.717668 432.466883 
L 243.730048 432.174674 
L 260.742428 431.888772 
L 277.754808 431.608927 
L 294.767187 431.334905 
L 311.779567 431.066486 
L 328.791947 430.803464 
L 345.804327 430.545643 
L 362.816707 430.292841 
L 379.829086 430.044883 
L 396.841466 429.801608 
L 413.853846 429.562859 
L 430.866226 429.328489 
L 447.878606 429.09836 
L 464.890986 428.87234 
L 481.903365 428.650303 
L 498.915745 428.432129 
L 515.928125 428.217705 
L 532.940505 428.006922 
L 549.952885 427.799677 
L 566.965264 427.595871 
L 583.977644 427.39541 
L 600.990024 427.198203 
L 618.002404 427.004164 
L 635.014784 426.813211 
L 652.027164 426.625265 
L 669.039543 426.440248 
L 686.051923 426.25809 
L 703.064303 426.078718 
L 720.076683 425.902067 
L 737.089063 425.72807 
L 754.101443 425.556667 
L 771.113822 425.387798 
L 788.126202 425.221404 
L 805.138582 425.05743 
L 822.150962 424.895822 
L 839.163342 424.736529 
L 856.175721 424.5795 
L 873.188101 424.424688 
L 890.200481 424.272047 
L 907.212861 424.12153 
L 924.225241 423.973094 
L 941.237621 423.826699 
L 958.25 423.682302 
L 975.26238 423.539864 
L 992.27476 423.399347 
L 1009 423.263054 
" clip-path="url(#p5f12f358a4)" style="fill: none; stroke: #d62728; stroke-width: 1.5; stroke-linecap: square"/>
   </g>
   <g id="line2d_52">
    <path d="M -1 320.80641 
L 5.55673 320.533035 
L 22.56911 319.845821 
L 39.58149 319.179373 
L 56.59387 318.532484 
L 73.60625 317.904057 
L 90.618629 317.293092 
L 107.631009 316.698675 
L 124.643389 316.119964 
L 141.655769 315.556187 
L 158.668149 315.00663 
L 175.680529 314.470635 
L 192.692908 313.947589 
L 209.705288 313.436926 
L 226.717668 312.938117 
L 243.730048 312.450669 
L 260.742428 311.974121 
L 277.754808 311.508043 
L 294.767187 311.052032 
L 311.779567 310.605707 
L 328.791947 310.168713 
L 345.804327 309.740713 
L 362.816707 309.321391 
L 379.829086 308.910449 
L 396.841466 308.507604 
L 413.853846 308.112588 
L 430.866226 307.725149 
L 447.878606 307.345046 
L 464.890986 306.97205 
L 481.903365 306.605946 
L 498.915745 306.246526 
L 515.928125 305.893594 
L 532.940505 305.546964 
L 549.952885 305.206455 
L 566.965264 304.871899 
L 583.977644 304.54313 
L 600.990024 304.219995 
L 618.002404 303.902343 
L 635.014784 303.590032 
L 652.027164 303.282924 
L 669.039543 302.980889 
L 686.051923 302.683799 
L 703.064303 302.391535 
L 720.076683 302.103979 
L 737.089063 301.82102 
L 754.101443 301.54255 
L 771.113822 301.268465 
L 788.126202 300.998666 
L 805.138582 300.733056 
L 822.150962 300.471542 
L 839.163342 300.214036 
L 856.175721 299.96045 
L 873.188101 299.710701 
L 890.200481 299.464709 
L 907.212861 299.222395 
L 924.225241 298.983685 
L 941.237621 298.748505 
L 958.25 298.516784 
L 975.26238 298.288456 
L 992.27476 298.063453 
L 1009 297.845453 
" clip-path="url(#p5f12f358a4)" style="fill: none; stroke: #9467bd; stroke-width: 1.5; stroke-linecap: square"/>
   </g>
   <g id="LineCollection_2">
    <path d="M 567.772765 614.64351 
L 567.772765 -1 
" clip-path="url(#p5f12f358a4)" style="fill: none; stroke: #0000ff; stroke-width: 1.5"/>
   </g>
   <g id="patch_3">
    <path d="M 39.58149 614.64351 
L 39.58149 6.799459 
" style="fill: none; stroke: #000000; stroke-width: 0.8; stroke-linejoin: miter; stroke-linecap: square"/>
   </g>
   <g id="patch_4">
    <path d="M 992.27476 614.64351 
L 992.27476 6.799459 
" style="fill: none; stroke: #000000; stroke-width: 0.8; stroke-linejoin: miter; stroke-linecap: square"/>
   </g>
   <g id="patch_5">
    <path d="M 39.58149 614.64351 
L 992.27476 614.64351 
" style="fill: none; stroke: #000000; stroke-width: 0.8; stroke-linejoin: miter; stroke-linecap: square"/>
   </g>
   <g id="patch_6">
    <path d="M 39.58149 6.799459 
L 992.27476 6.799459 
" style="fill: none; stroke: #000000; stroke-width: 0.8; stroke-linejoin: miter; stroke-linecap: square"/>
   </g>
   <g id="legend_1">
    <g id="patch_7">
     <path d="M 754.907572 190.936959 
L 985.27476 190.936959 
Q 987.27476 190.936959 987.27476 188.936959 
L 987.27476 13.799459 
Q 987.27476 11.799459 985.27476 11.799459 
L 754.907572 11.799459 
Q 752.907572 11.799459 752.907572 13.799459 
L 752.907572 188.936959 
Q 752.907572 190.936959 754.907572 190.936959 
z
" style="fill: #ffffff; opacity: 0.8; stroke: #cccccc; stroke-linejoin: miter"/>
    </g>
    <g id="line2d_53">
     <path d="M 756.907572 19.897896 
L 766.907572 19.897896 
L 776.907572 19.897896 
" style="fill: none; stroke: #008000; stroke-width: 1.5; stroke-linecap: square"/>
    </g>
    <g id="text_25">
     <!-- REQ-OFF-01 Take-off Field Length -->
     <g transform="translate(784.907572 23.397896) scale(0.1 -0.1)">
      <defs>
       <path id="DejaVuSans-52" d="M 2841 2188 
Q 3044 2119 3236 1894 
Q 3428 1669 3622 1275 
L 4263 0 
L 3584 0 
L 2988 1197 
Q 2756 1666 2539 1819 
Q 2322 1972 1947 1972 
L 1259 1972 
L 1259 0 
L 628 0 
L 628 4666 
L 2053 4666 
Q 2853 4666 3247 4331 
Q 3641 3997 3641 3322 
Q 3641 2881 3436 2590 
Q 3231 2300 2841 2188 
z
M 1259 4147 
L 1259 2491 
L 2053 2491 
Q 2509 2491 2742 2702 
Q 2975 2913 2975 3322 
Q 2975 3731 2742 3939 
Q 2509 4147 2053 4147 
L 1259 4147 
z
" transform="scale(0.015625)"/>
       <path id="DejaVuSans-45" d="M 628 4666 
L 3578 4666 
L 3578 4134 
L 1259 4134 
L 1259 2753 
L 3481 2753 
L 3481 2222 
L 1259 2222 
L 1259 531 
L 3634 531 
L 3634 0 
L 628 0 
L 628 4666 
z
" transform="scale(0.015625)"/>
       <path id="DejaVuSans-51" d="M 2522 4238 
Q 1834 4238 1429 3725 
Q 1025 3213 1025 2328 
Q 1025 1447 1429 934 
Q 1834 422 2522 422 
Q 3209 422 3611 934 
Q 4013 1447 4013 2328 
Q 4013 3213 3611 3725 
Q 3209 4238 2522 4238 
z
M 3406 84 
L 4238 -825 
L 3475 -825 
L 2784 -78 
Q 2681 -84 2626 -87 
Q 2572 -91 2522 -91 
Q 1538 -91 948 567 
Q 359 1225 359 2328 
Q 359 3434 948 4092 
Q 1538 4750 2522 4750 
Q 3503 4750 4090 4092 
Q 4678 3434 4678 2328 
Q 4678 1516 4351 937 
Q 4025 359 3406 84 
z
" transform="scale(0.015625)"/>
       <path id="DejaVuSans-2d" d="M 313 2009 
L 1997 2009 
L 1997 1497 
L 313 1497 
L 313 2009 
z
" transform="scale(0.015625)"/>
       <path id="DejaVuSans-4f" d="M 2522 4238 
Q 1834 4238 1429 3725 
Q 1025 3213 1025 2328 
Q 1025 1447 1429 934 
Q 1834 422 2522 422 
Q 3209 422 3611 934 
Q 4013 1447 4013 2328 
Q 4013 3213 3611 3725 
Q 3209 4238 2522 4238 
z
M 2522 4750 
Q 3503 4750 4090 4092 
Q 4678 3434 4678 2328 
Q 4678 1225 4090 567 
Q 3503 -91 2522 -91 
Q 1538 -91 948 565 
Q 359 1222 359 2328 
Q 359 3434 948 4092 
Q 1538 4750 2522 4750 
z
" transform="scale(0.015625)"/>
       <path id="DejaVuSans-46" d="M 628 4666 
L 3309 4666 
L 3309 4134 
L 1259 4134 
L 1259 2759 
L 3109 2759 
L 3109 2228 
L 1259 2228 
L 1259 0 
L 628 0 
L 628 4666 
z
" transform="scale(0.015625)"/>
       <path id="DejaVuSans-61" d="M 2194 1759 
Q 1497 1759 1228 1600 
Q 959 1441 959 1056 
Q 959 750 1161 570 
Q 1363 391 1709 391 
Q 2188 391 2477 730 
Q 2766 1069 2766 1631 
L 2766 1759 
L 2194 1759 
z
M 3341 1997 
L 3341 0 
L 2766 0 
L 2766 531 
Q 2569 213 2275 61 
Q 1981 -91 1556 -91 
Q 1019 -91 701 211 
Q 384 513 384 1019 
Q 384 1609 779 1909 
Q 1175 2209 1959 2209 
L 2766 2209 
L 2766 2266 
Q 2766 2663 2505 2880 
Q 2244 3097 1772 3097 
Q 1472 3097 1187 3025 
Q 903 2953 641 2809 
L 641 3341 
Q 956 3463 1253 3523 
Q 1550 3584 1831 3584 
Q 2591 3584 2966 3190 
Q 3341 2797 3341 1997 
z
" transform="scale(0.015625)"/>
       <path id="DejaVuSans-6b" d="M 581 4863 
L 1159 4863 
L 1159 1991 
L 2875 3500 
L 3609 3500 
L 1753 1863 
L 3688 0 
L 2938 0 
L 1159 1709 
L 1159 0 
L 581 0 
L 581 4863 
z
" transform="scale(0.015625)"/>
       <path id="DejaVuSans-65" d="M 3597 1894 
L 3597 1613 
L 953 1613 
Q 991 1019 1311 708 
Q 1631 397 2203 397 
Q 2534 397 2845 478 
Q 3156 559 3463 722 
L 3463 178 
Q 3153 47 2828 -22 
Q 2503 -91 2169 -91 
Q 1331 -91 842 396 
Q 353 884 353 1716 
Q 353 2575 817 3079 
Q 1281 3584 2069 3584 
Q 2775 3584 3186 3129 
Q 3597 2675 3597 1894 
z
M 3022 2063 
Q 3016 2534 2758 2815 
Q 2500 3097 2075 3097 
Q 1594 3097 1305 2825 
Q 1016 2553 972 2059 
L 3022 2063 
z
" transform="scale(0.015625)"/>
       <path id="DejaVuSans-6f" d="M 1959 3097 
Q 1497 3097 1228 2736 
Q 959 2375 959 1747 
Q 959 1119 1226 758 
Q 1494 397 1959 397 
Q 2419 397 2687 759 
Q 2956 1122 2956 1747 
Q 2956 2369 2687 2733 
Q 2419 3097 1959 3097 
z
M 1959 3584 
Q 2709 3584 3137 3096 
Q 3566 2609 3566 1747 
Q 3566 888 3137 398 
Q 2709 -91 1959 -91 
Q 1206 -91 779 398 
Q 353 888 353 1747 
Q 353 2609 779 3096 
Q 1206 3584 1959 3584 
z
" transform="scale(0.015625)"/>
       <path id="DejaVuSans-66" d="M 2375 4863 
L 2375 4384 
L 1825 4384 
Q 1516 4384 1395 4259 
Q 1275 4134 1275 3809 
L 1275 3500 
L 2222 3500 
L 2222 3053 
L 1275 3053 
L 1275 0 
L 697 0 
L 697 3053 
L 147 3053 
L 147 3500 
L 697 3500 
L 697 3744 
Q 697 4328 969 4595 
Q 1241 4863 1831 4863 
L 2375 4863 
z
" transform="scale(0.015625)"/>
       <path id="DejaVuSans-69" d="M 603 3500 
L 1178 3500 
L 1178 0 
L 603 0 
L 603 3500 
z
M 603 4863 
L 1178 4863 
L 1178 4134 
L 603 4134 
L 603 4863 
z
" transform="scale(0.015625)"/>
       <path id="DejaVuSans-6c" d="M 603 4863 
L 1178 4863 
L 1178 0 
L 603 0 
L 603 4863 
z
" transform="scale(0.015625)"/>
       <path id="DejaVuSans-64" d="M 2906 2969 
L 2906 4863 
L 3481 4863 
L 3481 0 
L 2906 0 
L 2906 525 
Q 2725 213 2448 61 
Q 2172 -91 1784 -91 
Q 1150 -91 751 415 
Q 353 922 353 1747 
Q 353 2572 751 3078 
Q 1150 3584 1784 3584 
Q 2172 3584 2448 3432 
Q 2725 3281 2906 2969 
z
M 947 1747 
Q 947 1113 1208 752 
Q 1469 391 1925 391 
Q 2381 391 2643 752 
Q 2906 1113 2906 1747 
Q 2906 2381 2643 2742 
Q 2381 3103 1925 3103 
Q 1469 3103 1208 2742 
Q 947 2381 947 1747 
z
" transform="scale(0.015625)"/>
       <path id="DejaVuSans-4c" d="M 628 4666 
L 1259 4666 
L 1259 531 
L 3531 531 
L 3531 0 
L 628 0 
L 628 4666 
z
" transform="scale(0.015625)"/>
       <path id="DejaVuSans-6e" d="M 3513 2113 
L 3513 0 
L 2938 0 
L 2938 2094 
Q 2938 2591 2744 2837 
Q 2550 3084 2163 3084 
Q 1697 3084 1428 2787 
Q 1159 2491 1159 1978 
L 1159 0 
L 581 0 
L 581 3500 
L 1159 3500 
L 1159 2956 
Q 1366 3272 1645 3428 
Q 1925 3584 2291 3584 
Q 2894 3584 3203 3211 
Q 3513 2838 3513 2113 
z
" transform="scale(0.015625)"/>
       <path id="DejaVuSans-67" d="M 2906 1791 
Q 2906 2416 2648 2759 
Q 2391 3103 1925 3103 
Q 1463 3103 1205 2759 
Q 947 2416 947 1791 
Q 947 1169 1205 825 
Q 1463 481 1925 481 
Q 2391 481 2648 825 
Q 2906 1169 2906 1791 
z
M 3481 434 
Q 3481 -459 3084 -895 
Q 2688 -1331 1869 -1331 
Q 1566 -1331 1297 -1286 
Q 1028 -1241 775 -1147 
L 775 -588 
Q 1028 -725 1275 -790 
Q 1522 -856 1778 -856 
Q 2344 -856 2625 -561 
Q 2906 -266 2906 331 
L 2906 616 
Q 2728 306 2450 153 
Q 2172 0 1784 0 
Q 1141 0 747 490 
Q 353 981 353 1791 
Q 353 2603 747 3093 
Q 1141 3584 1784 3584 
Q 2172 3584 2450 3431 
Q 2728 3278 2906 2969 
L 2906 3500 
L 3481 3500 
L 3481 434 
z
" transform="scale(0.015625)"/>
       <path id="DejaVuSans-74" d="M 1172 4494 
L 1172 3500 
L 2356 3500 
L 2356 3053 
L 1172 3053 
L 1172 1153 
Q 1172 725 1289 603 
Q 1406 481 1766 481 
L 2356 481 
L 2356 0 
L 1766 0 
Q 1100 0 847 248 
Q 594 497 594 1153 
L 594 3053 
L 172 3053 
L 172 3500 
L 594 3500 
L 594 4494 
L 1172 4494 
z
" transform="scale(0.015625)"/>
       <path id="DejaVuSans-68" d="M 3513 2113 
L 3513 0 
L 2938 0 
L 2938 2094 
Q 2938 2591 2744 2837 
Q 2550 3084 2163 3084 
Q 1697 3084 1428 2787 
Q 1159 2491 1159 1978 
L 1159 0 
L 581 0 
L 581 4863 
L 1159 4863 
L 1159 2956 
Q 1366 3272 1645 3428 
Q 1925 3584 2291 3584 
Q 2894 3584 3203 3211 
Q 3513 2838 3513 2113 
z
" transform="scale(0.015625)"/>
      </defs>
      <use xlink:href="#DejaVuSans-52"/>
      <use xlink:href="#DejaVuSans-45" x="69.482422"/>
      <use xlink:href="#DejaVuSans-51" x="132.666016"/>
      <use xlink:href="#DejaVuSans-2d" x="214.126953"/>
      <use xlink:href="#DejaVuSans-4f" x="252.960938"/>
      <use xlink:href="#DejaVuSans-46" x="331.671875"/>
      <use xlink:href="#DejaVuSans-46" x="389.191406"/>
      <use xlink:href="#DejaVuSans-2d" x="446.710938"/>
      <use xlink:href="#DejaVuSans-30" x="482.794922"/>
      <use xlink:href="#DejaVuSans-31" x="546.417969"/>
      <use xlink:href="#DejaVuSans-20" x="610.041016"/>
      <use xlink:href="#DejaVuSans-54" x="641.828125"/>
      <use xlink:href="#DejaVuSans-61" x="686.412109"/>
      <use xlink:href="#DejaVuSans-6b" x="747.691406"/>
      <use xlink:href="#DejaVuSans-65" x="801.976562"/>
      <use xlink:href="#DejaVuSans-2d" x="863.5"/>
      <use xlink:href="#DejaVuSans-6f" x="901.458984"/>
      <use xlink:href="#DejaVuSans-66" x="962.640625"/>
      <use xlink:href="#DejaVuSans-66" x="997.845703"/>
      <use xlink:href="#DejaVuSans-20" x="1033.050781"/>
      <use xlink:href="#DejaVuSans-46" x="1064.837891"/>
      <use xlink:href="#DejaVuSans-69" x="1115.107422"/>
      <use xlink:href="#DejaVuSans-65" x="1142.890625"/>
      <use xlink:href="#DejaVuSans-6c" x="1204.414062"/>
      <use xlink:href="#DejaVuSans-64" x="1232.197266"/>
      <use xlink:href="#DejaVuSans-20" x="1295.673828"/>
      <use xlink:href="#DejaVuSans-4c" x="1327.460938"/>
      <use xlink:href="#DejaVuSans-65" x="1381.423828"/>
      <use xlink:href="#DejaVuSans-6e" x="1442.947266"/>
      <use xlink:href="#DejaVuSans-67" x="1506.326172"/>
      <use xlink:href="#DejaVuSans-74" x="1569.802734"/>
      <use xlink:href="#DejaVuSans-68" x="1609.011719"/>
     </g>
    </g>
    <g id="line2d_54">
     <path d="M 756.907572 34.576021 
L 766.907572 34.576021 
L 776.907572 34.576021 
" style="fill: none; stroke: #1f77b4; stroke-width: 1.5; stroke-linecap: square"/>
    </g>
    <g id="text_26">
     <!-- REQ-OFF-02 Climb Gradient Take-off -->
     <g transform="translate(784.907572 38.076021) scale(0.1 -0.1)">
      <defs>
       <path id="DejaVuSans-43" d="M 4122 4306 
L 4122 3641 
Q 3803 3938 3442 4084 
Q 3081 4231 2675 4231 
Q 1875 4231 1450 3742 
Q 1025 3253 1025 2328 
Q 1025 1406 1450 917 
Q 1875 428 2675 428 
Q 3081 428 3442 575 
Q 3803 722 4122 1019 
L 4122 359 
Q 3791 134 3420 21 
Q 3050 -91 2638 -91 
Q 1578 -91 968 557 
Q 359 1206 359 2328 
Q 359 3453 968 4101 
Q 1578 4750 2638 4750 
Q 3056 4750 3426 4639 
Q 3797 4528 4122 4306 
z
" transform="scale(0.015625)"/>
       <path id="DejaVuSans-62" d="M 3116 1747 
Q 3116 2381 2855 2742 
Q 2594 3103 2138 3103 
Q 1681 3103 1420 2742 
Q 1159 2381 1159 1747 
Q 1159 1113 1420 752 
Q 1681 391 2138 391 
Q 2594 391 2855 752 
Q 3116 1113 3116 1747 
z
M 1159 2969 
Q 1341 3281 1617 3432 
Q 1894 3584 2278 3584 
Q 2916 3584 3314 3078 
Q 3713 2572 3713 1747 
Q 3713 922 3314 415 
Q 2916 -91 2278 -91 
Q 1894 -91 1617 61 
Q 1341 213 1159 525 
L 1159 0 
L 581 0 
L 581 4863 
L 1159 4863 
L 1159 2969 
z
" transform="scale(0.015625)"/>
       <path id="DejaVuSans-47" d="M 3809 666 
L 3809 1919 
L 2778 1919 
L 2778 2438 
L 4434 2438 
L 4434 434 
Q 4069 175 3628 42 
Q 3188 -91 2688 -91 
Q 1594 -91 976 548 
Q 359 1188 359 2328 
Q 359 3472 976 4111 
Q 1594 4750 2688 4750 
Q 3144 4750 3555 4637 
Q 3966 4525 4313 4306 
L 4313 3634 
Q 3963 3931 3569 4081 
Q 3175 4231 2741 4231 
Q 1884 4231 1454 3753 
Q 1025 3275 1025 2328 
Q 1025 1384 1454 906 
Q 1884 428 2741 428 
Q 3075 428 3337 486 
Q 3600 544 3809 666 
z
" transform="scale(0.015625)"/>
       <path id="DejaVuSans-72" d="M 2631 2963 
Q 2534 3019 2420 3045 
Q 2306 3072 2169 3072 
Q 1681 3072 1420 2755 
Q 1159 2438 1159 1844 
L 1159 0 
L 581 0 
L 581 3500 
L 1159 3500 
L 1159 2956 
Q 1341 3275 1631 3429 
Q 1922 3584 2338 3584 
Q 2397 3584 2469 3576 
Q 2541 3569 2628 3553 
L 2631 2963 
z
" transform="scale(0.015625)"/>
      </defs>
      <use xlink:href="#DejaVuSans-52"/>
      <use xlink:href="#DejaVuSans-45" x="69.482422"/>
      <use xlink:href="#DejaVuSans-51" x="132.666016"/>
      <use xlink:href="#DejaVuSans-2d" x="214.126953"/>
      <use xlink:href="#DejaVuSans-4f" x="252.960938"/>
      <use xlink:href="#DejaVuSans-46" x="331.671875"/>
      <use xlink:href="#DejaVuSans-46" x="389.191406"/>
      <use xlink:href="#DejaVuSans-2d" x="446.710938"/>
      <use xlink:href="#DejaVuSans-30" x="482.794922"/>
      <use xlink:href="#DejaVuSans-32" x="546.417969"/>
      <use xlink:href="#DejaVuSans-20" x="610.041016"/>
      <use xlink:href="#DejaVuSans-43" x="641.828125"/>
      <use xlink:href="#DejaVuSans-6c" x="711.652344"/>
      <use xlink:href="#DejaVuSans-69" x="739.435547"/>
      <use xlink:href="#DejaVuSans-6d" x="767.21875"/>
      <use xlink:href="#DejaVuSans-62" x="864.630859"/>
      <use xlink:href="#DejaVuSans-20" x="928.107422"/>
      <use xlink:href="#DejaVuSans-47" x="959.894531"/>
      <use xlink:href="#DejaVuSans-72" x="1037.384766"/>
      <use xlink:href="#DejaVuSans-61" x="1078.498047"/>
      <use xlink:href="#DejaVuSans-64" x="1139.777344"/>
      <use xlink:href="#DejaVuSans-69" x="1203.253906"/>
      <use xlink:href="#DejaVuSans-65" x="1231.037109"/>
      <use xlink:href="#DejaVuSans-6e" x="1292.560547"/>
      <use xlink:href="#DejaVuSans-74" x="1355.939453"/>
      <use xlink:href="#DejaVuSans-20" x="1395.148438"/>
      <use xlink:href="#DejaVuSans-54" x="1426.935547"/>
      <use xlink:href="#DejaVuSans-61" x="1471.519531"/>
      <use xlink:href="#DejaVuSans-6b" x="1532.798828"/>
      <use xlink:href="#DejaVuSans-65" x="1587.083984"/>
      <use xlink:href="#DejaVuSans-2d" x="1648.607422"/>
      <use xlink:href="#DejaVuSans-6f" x="1686.566406"/>
      <use xlink:href="#DejaVuSans-66" x="1747.748047"/>
      <use xlink:href="#DejaVuSans-66" x="1782.953125"/>
     </g>
    </g>
    <g id="line2d_55">
     <path d="M 756.907572 49.254146 
L 766.907572 49.254146 
L 776.907572 49.254146 
" style="fill: none; stroke: #ff7f0e; stroke-width: 1.5; stroke-linecap: square"/>
    </g>
    <g id="text_27">
     <!-- REQ-OFF-03 Climb Gradient Take-off -->
     <g transform="translate(784.907572 52.754146) scale(0.1 -0.1)">
      <use xlink:href="#DejaVuSans-52"/>
      <use xlink:href="#DejaVuSans-45" x="69.482422"/>
      <use xlink:href="#DejaVuSans-51" x="132.666016"/>
      <use xlink:href="#DejaVuSans-2d" x="214.126953"/>
      <use xlink:href="#DejaVuSans-4f" x="252.960938"/>
      <use xlink:href="#DejaVuSans-46" x="331.671875"/>
      <use xlink:href="#DejaVuSans-46" x="389.191406"/>
      <use xlink:href="#DejaVuSans-2d" x="446.710938"/>
      <use xlink:href="#DejaVuSans-30" x="482.794922"/>
      <use xlink:href="#DejaVuSans-33" x="546.417969"/>
      <use xlink:href="#DejaVuSans-20" x="610.041016"/>
      <use xlink:href="#DejaVuSans-43" x="641.828125"/>
      <use xlink:href="#DejaVuSans-6c" x="711.652344"/>
      <use xlink:href="#DejaVuSans-69" x="739.435547"/>
      <use xlink:href="#DejaVuSans-6d" x="767.21875"/>
      <use xlink:href="#DejaVuSans-62" x="864.630859"/>
      <use xlink:href="#DejaVuSans-20" x="928.107422"/>
      <use xlink:href="#DejaVuSans-47" x="959.894531"/>
      <use xlink:href="#DejaVuSans-72" x="1037.384766"/>
      <use xlink:href="#DejaVuSans-61" x="1078.498047"/>
      <use xlink:href="#DejaVuSans-64" x="1139.777344"/>
      <use xlink:href="#DejaVuSans-69" x="1203.253906"/>
      <use xlink:href="#DejaVuSans-65" x="1231.037109"/>
      <use xlink:href="#DejaVuSans-6e" x="1292.560547"/>
      <use xlink:href="#DejaVuSans-74" x="1355.939453"/>
      <use xlink:href="#DejaVuSans-20" x="1395.148438"/>
      <use xlink:href="#DejaVuSans-54" x="1426.935547"/>
      <use xlink:href="#DejaVuSans-61" x="1471.519531"/>
      <use xlink:href="#DejaVuSans-6b" x="1532.798828"/>
      <use xlink:href="#DejaVuSans-65" x="1587.083984"/>
      <use xlink:href="#DejaVuSans-2d" x="1648.607422"/>
      <use xlink:href="#DejaVuSans-6f" x="1686.566406"/>
      <use xlink:href="#DejaVuSans-66" x="1747.748047"/>
      <use xlink:href="#DejaVuSans-66" x="1782.953125"/>
     </g>
    </g>
    <g id="line2d_56">
     <path d="M 756.907572 63.932271 
L 766.907572 63.932271 
L 776.907572 63.932271 
" style="fill: none; stroke: #2ca02c; stroke-width: 1.5; stroke-linecap: square"/>
    </g>
    <g id="text_28">
     <!-- REQ-OFF-04 Climb Gradient Take-off -->
     <g transform="translate(784.907572 67.432271) scale(0.1 -0.1)">
      <use xlink:href="#DejaVuSans-52"/>
      <use xlink:href="#DejaVuSans-45" x="69.482422"/>
      <use xlink:href="#DejaVuSans-51" x="132.666016"/>
      <use xlink:href="#DejaVuSans-2d" x="214.126953"/>
      <use xlink:href="#DejaVuSans-4f" x="252.960938"/>
      <use xlink:href="#DejaVuSans-46" x="331.671875"/>
      <use xlink:href="#DejaVuSans-46" x="389.191406"/>
      <use xlink:href="#DejaVuSans-2d" x="446.710938"/>
      <use xlink:href="#DejaVuSans-30" x="482.794922"/>
      <use xlink:href="#DejaVuSans-34" x="546.417969"/>
      <use xlink:href="#DejaVuSans-20" x="610.041016"/>
      <use xlink:href="#DejaVuSans-43" x="641.828125"/>
      <use xlink:href="#DejaVuSans-6c" x="711.652344"/>
      <use xlink:href="#DejaVuSans-69" x="739.435547"/>
      <use xlink:href="#DejaVuSans-6d" x="767.21875"/>
      <use xlink:href="#DejaVuSans-62" x="864.630859"/>
      <use xlink:href="#DejaVuSans-20" x="928.107422"/>
      <use xlink:href="#DejaVuSans-47" x="959.894531"/>
      <use xlink:href="#DejaVuSans-72" x="1037.384766"/>
      <use xlink:href="#DejaVuSans-61" x="1078.498047"/>
      <use xlink:href="#DejaVuSans-64" x="1139.777344"/>
      <use xlink:href="#DejaVuSans-69" x="1203.253906"/>
      <use xlink:href="#DejaVuSans-65" x="1231.037109"/>
      <use xlink:href="#DejaVuSans-6e" x="1292.560547"/>
      <use xlink:href="#DejaVuSans-74" x="1355.939453"/>
      <use xlink:href="#DejaVuSans-20" x="1395.148438"/>
      <use xlink:href="#DejaVuSans-54" x="1426.935547"/>
      <use xlink:href="#DejaVuSans-61" x="1471.519531"/>
      <use xlink:href="#DejaVuSans-6b" x="1532.798828"/>
      <use xlink:href="#DejaVuSans-65" x="1587.083984"/>
      <use xlink:href="#DejaVuSans-2d" x="1648.607422"/>
      <use xlink:href="#DejaVuSans-6f" x="1686.566406"/>
      <use xlink:href="#DejaVuSans-66" x="1747.748047"/>
      <use xlink:href="#DejaVuSans-66" x="1782.953125"/>
     </g>
    </g>
    <g id="line2d_57">
     <path d="M 756.907572 78.610396 
L 766.907572 78.610396 
L 776.907572 78.610396 
" style="fill: none; stroke: #ffff00; stroke-width: 1.5; stroke-linecap: square"/>
    </g>
    <g id="text_29">
     <!-- REQ-OPER-01 Climb Rate -->
     <g transform="translate(784.907572 82.110396) scale(0.1 -0.1)">
      <defs>
       <path id="DejaVuSans-50" d="M 1259 4147 
L 1259 2394 
L 2053 2394 
Q 2494 2394 2734 2622 
Q 2975 2850 2975 3272 
Q 2975 3691 2734 3919 
Q 2494 4147 2053 4147 
L 1259 4147 
z
M 628 4666 
L 2053 4666 
Q 2838 4666 3239 4311 
Q 3641 3956 3641 3272 
Q 3641 2581 3239 2228 
Q 2838 1875 2053 1875 
L 1259 1875 
L 1259 0 
L 628 0 
L 628 4666 
z
" transform="scale(0.015625)"/>
      </defs>
      <use xlink:href="#DejaVuSans-52"/>
      <use xlink:href="#DejaVuSans-45" x="69.482422"/>
      <use xlink:href="#DejaVuSans-51" x="132.666016"/>
      <use xlink:href="#DejaVuSans-2d" x="214.126953"/>
      <use xlink:href="#DejaVuSans-4f" x="252.960938"/>
      <use xlink:href="#DejaVuSans-50" x="331.671875"/>
      <use xlink:href="#DejaVuSans-45" x="391.974609"/>
      <use xlink:href="#DejaVuSans-52" x="455.158203"/>
      <use xlink:href="#DejaVuSans-2d" x="520.640625"/>
      <use xlink:href="#DejaVuSans-30" x="556.724609"/>
      <use xlink:href="#DejaVuSans-31" x="620.347656"/>
      <use xlink:href="#DejaVuSans-20" x="683.970703"/>
      <use xlink:href="#DejaVuSans-43" x="715.757812"/>
      <use xlink:href="#DejaVuSans-6c" x="785.582031"/>
      <use xlink:href="#DejaVuSans-69" x="813.365234"/>
      <use xlink:href="#DejaVuSans-6d" x="841.148438"/>
      <use xlink:href="#DejaVuSans-62" x="938.560547"/>
      <use xlink:href="#DejaVuSans-20" x="1002.037109"/>
      <use xlink:href="#DejaVuSans-52" x="1033.824219"/>
      <use xlink:href="#DejaVuSans-61" x="1101.056641"/>
      <use xlink:href="#DejaVuSans-74" x="1162.335938"/>
      <use xlink:href="#DejaVuSans-65" x="1201.544922"/>
     </g>
    </g>
    <g id="line2d_58">
     <path d="M 756.907572 93.288521 
L 766.907572 93.288521 
L 776.907572 93.288521 
" style="fill: none; stroke: #800080; stroke-width: 1.5; stroke-linecap: square"/>
    </g>
    <g id="text_30">
     <!-- REQ-CRU-01 Cruise Speed -->
     <g transform="translate(784.907572 96.788521) scale(0.1 -0.1)">
      <defs>
       <path id="DejaVuSans-55" d="M 556 4666 
L 1191 4666 
L 1191 1831 
Q 1191 1081 1462 751 
Q 1734 422 2344 422 
Q 2950 422 3222 751 
Q 3494 1081 3494 1831 
L 3494 4666 
L 4128 4666 
L 4128 1753 
Q 4128 841 3676 375 
Q 3225 -91 2344 -91 
Q 1459 -91 1007 375 
Q 556 841 556 1753 
L 556 4666 
z
" transform="scale(0.015625)"/>
       <path id="DejaVuSans-75" d="M 544 1381 
L 544 3500 
L 1119 3500 
L 1119 1403 
Q 1119 906 1312 657 
Q 1506 409 1894 409 
Q 2359 409 2629 706 
Q 2900 1003 2900 1516 
L 2900 3500 
L 3475 3500 
L 3475 0 
L 2900 0 
L 2900 538 
Q 2691 219 2414 64 
Q 2138 -91 1772 -91 
Q 1169 -91 856 284 
Q 544 659 544 1381 
z
M 1991 3584 
L 1991 3584 
z
" transform="scale(0.015625)"/>
       <path id="DejaVuSans-73" d="M 2834 3397 
L 2834 2853 
Q 2591 2978 2328 3040 
Q 2066 3103 1784 3103 
Q 1356 3103 1142 2972 
Q 928 2841 928 2578 
Q 928 2378 1081 2264 
Q 1234 2150 1697 2047 
L 1894 2003 
Q 2506 1872 2764 1633 
Q 3022 1394 3022 966 
Q 3022 478 2636 193 
Q 2250 -91 1575 -91 
Q 1294 -91 989 -36 
Q 684 19 347 128 
L 347 722 
Q 666 556 975 473 
Q 1284 391 1588 391 
Q 1994 391 2212 530 
Q 2431 669 2431 922 
Q 2431 1156 2273 1281 
Q 2116 1406 1581 1522 
L 1381 1569 
Q 847 1681 609 1914 
Q 372 2147 372 2553 
Q 372 3047 722 3315 
Q 1072 3584 1716 3584 
Q 2034 3584 2315 3537 
Q 2597 3491 2834 3397 
z
" transform="scale(0.015625)"/>
       <path id="DejaVuSans-70" d="M 1159 525 
L 1159 -1331 
L 581 -1331 
L 581 3500 
L 1159 3500 
L 1159 2969 
Q 1341 3281 1617 3432 
Q 1894 3584 2278 3584 
Q 2916 3584 3314 3078 
Q 3713 2572 3713 1747 
Q 3713 922 3314 415 
Q 2916 -91 2278 -91 
Q 1894 -91 1617 61 
Q 1341 213 1159 525 
z
M 3116 1747 
Q 3116 2381 2855 2742 
Q 2594 3103 2138 3103 
Q 1681 3103 1420 2742 
Q 1159 2381 1159 1747 
Q 1159 1113 1420 752 
Q 1681 391 2138 391 
Q 2594 391 2855 752 
Q 3116 1113 3116 1747 
z
" transform="scale(0.015625)"/>
      </defs>
      <use xlink:href="#DejaVuSans-52"/>
      <use xlink:href="#DejaVuSans-45" x="69.482422"/>
      <use xlink:href="#DejaVuSans-51" x="132.666016"/>
      <use xlink:href="#DejaVuSans-2d" x="214.126953"/>
      <use xlink:href="#DejaVuSans-43" x="250.210938"/>
      <use xlink:href="#DejaVuSans-52" x="320.035156"/>
      <use xlink:href="#DejaVuSans-55" x="389.517578"/>
      <use xlink:href="#DejaVuSans-2d" x="462.710938"/>
      <use xlink:href="#DejaVuSans-30" x="498.794922"/>
      <use xlink:href="#DejaVuSans-31" x="562.417969"/>
      <use xlink:href="#DejaVuSans-20" x="626.041016"/>
      <use xlink:href="#DejaVuSans-43" x="657.828125"/>
      <use xlink:href="#DejaVuSans-72" x="727.652344"/>
      <use xlink:href="#DejaVuSans-75" x="768.765625"/>
      <use xlink:href="#DejaVuSans-69" x="832.144531"/>
      <use xlink:href="#DejaVuSans-73" x="859.927734"/>
      <use xlink:href="#DejaVuSans-65" x="912.027344"/>
      <use xlink:href="#DejaVuSans-20" x="973.550781"/>
      <use xlink:href="#DejaVuSans-53" x="1005.337891"/>
      <use xlink:href="#DejaVuSans-70" x="1068.814453"/>
      <use xlink:href="#DejaVuSans-65" x="1132.291016"/>
      <use xlink:href="#DejaVuSans-65" x="1193.814453"/>
      <use xlink:href="#DejaVuSans-64" x="1255.337891"/>
     </g>
    </g>
    <g id="line2d_59">
     <path d="M 756.907572 107.966646 
L 776.907572 107.966646 
" style="fill: none; stroke: #ffa500; stroke-width: 1.5"/>
    </g>
    <g id="text_31">
     <!-- REQ-LAND-01 Landing Field Length -->
     <g transform="translate(784.907572 111.466646) scale(0.1 -0.1)">
      <defs>
       <path id="DejaVuSans-41" d="M 2188 4044 
L 1331 1722 
L 3047 1722 
L 2188 4044 
z
M 1831 4666 
L 2547 4666 
L 4325 0 
L 3669 0 
L 3244 1197 
L 1141 1197 
L 716 0 
L 50 0 
L 1831 4666 
z
" transform="scale(0.015625)"/>
       <path id="DejaVuSans-44" d="M 1259 4147 
L 1259 519 
L 2022 519 
Q 2988 519 3436 956 
Q 3884 1394 3884 2338 
Q 3884 3275 3436 3711 
Q 2988 4147 2022 4147 
L 1259 4147 
z
M 628 4666 
L 1925 4666 
Q 3281 4666 3915 4102 
Q 4550 3538 4550 2338 
Q 4550 1131 3912 565 
Q 3275 0 1925 0 
L 628 0 
L 628 4666 
z
" transform="scale(0.015625)"/>
      </defs>
      <use xlink:href="#DejaVuSans-52"/>
      <use xlink:href="#DejaVuSans-45" x="69.482422"/>
      <use xlink:href="#DejaVuSans-51" x="132.666016"/>
      <use xlink:href="#DejaVuSans-2d" x="214.126953"/>
      <use xlink:href="#DejaVuSans-4c" x="250.210938"/>
      <use xlink:href="#DejaVuSans-41" x="308.173828"/>
      <use xlink:href="#DejaVuSans-4e" x="376.582031"/>
      <use xlink:href="#DejaVuSans-44" x="451.386719"/>
      <use xlink:href="#DejaVuSans-2d" x="528.388672"/>
      <use xlink:href="#DejaVuSans-30" x="564.472656"/>
      <use xlink:href="#DejaVuSans-31" x="628.095703"/>
      <use xlink:href="#DejaVuSans-20" x="691.71875"/>
      <use xlink:href="#DejaVuSans-4c" x="723.505859"/>
      <use xlink:href="#DejaVuSans-61" x="779.21875"/>
      <use xlink:href="#DejaVuSans-6e" x="840.498047"/>
      <use xlink:href="#DejaVuSans-64" x="903.876953"/>
      <use xlink:href="#DejaVuSans-69" x="967.353516"/>
      <use xlink:href="#DejaVuSans-6e" x="995.136719"/>
      <use xlink:href="#DejaVuSans-67" x="1058.515625"/>
      <use xlink:href="#DejaVuSans-20" x="1121.992188"/>
      <use xlink:href="#DejaVuSans-46" x="1153.779297"/>
      <use xlink:href="#DejaVuSans-69" x="1204.048828"/>
      <use xlink:href="#DejaVuSans-65" x="1231.832031"/>
      <use xlink:href="#DejaVuSans-6c" x="1293.355469"/>
      <use xlink:href="#DejaVuSans-64" x="1321.138672"/>
      <use xlink:href="#DejaVuSans-20" x="1384.615234"/>
      <use xlink:href="#DejaVuSans-4c" x="1416.402344"/>
      <use xlink:href="#DejaVuSans-65" x="1470.365234"/>
      <use xlink:href="#DejaVuSans-6e" x="1531.888672"/>
      <use xlink:href="#DejaVuSans-67" x="1595.267578"/>
      <use xlink:href="#DejaVuSans-74" x="1658.744141"/>
      <use xlink:href="#DejaVuSans-68" x="1697.953125"/>
     </g>
    </g>
    <g id="line2d_60">
     <path d="M 756.907572 122.644771 
L 766.907572 122.644771 
L 776.907572 122.644771 
" style="fill: none; stroke: #d62728; stroke-width: 1.5; stroke-linecap: square"/>
    </g>
    <g id="text_32">
     <!-- REQ-LAND-02 Climb Gradient Landing -->
     <g transform="translate(784.907572 126.144771) scale(0.1 -0.1)">
      <use xlink:href="#DejaVuSans-52"/>
      <use xlink:href="#DejaVuSans-45" x="69.482422"/>
      <use xlink:href="#DejaVuSans-51" x="132.666016"/>
      <use xlink:href="#DejaVuSans-2d" x="214.126953"/>
      <use xlink:href="#DejaVuSans-4c" x="250.210938"/>
      <use xlink:href="#DejaVuSans-41" x="308.173828"/>
      <use xlink:href="#DejaVuSans-4e" x="376.582031"/>
      <use xlink:href="#DejaVuSans-44" x="451.386719"/>
      <use xlink:href="#DejaVuSans-2d" x="528.388672"/>
      <use xlink:href="#DejaVuSans-30" x="564.472656"/>
      <use xlink:href="#DejaVuSans-32" x="628.095703"/>
      <use xlink:href="#DejaVuSans-20" x="691.71875"/>
      <use xlink:href="#DejaVuSans-43" x="723.505859"/>
      <use xlink:href="#DejaVuSans-6c" x="793.330078"/>
      <use xlink:href="#DejaVuSans-69" x="821.113281"/>
      <use xlink:href="#DejaVuSans-6d" x="848.896484"/>
      <use xlink:href="#DejaVuSans-62" x="946.308594"/>
      <use xlink:href="#DejaVuSans-20" x="1009.785156"/>
      <use xlink:href="#DejaVuSans-47" x="1041.572266"/>
      <use xlink:href="#DejaVuSans-72" x="1119.0625"/>
      <use xlink:href="#DejaVuSans-61" x="1160.175781"/>
      <use xlink:href="#DejaVuSans-64" x="1221.455078"/>
      <use xlink:href="#DejaVuSans-69" x="1284.931641"/>
      <use xlink:href="#DejaVuSans-65" x="1312.714844"/>
      <use xlink:href="#DejaVuSans-6e" x="1374.238281"/>
      <use xlink:href="#DejaVuSans-74" x="1437.617188"/>
      <use xlink:href="#DejaVuSans-20" x="1476.826172"/>
      <use xlink:href="#DejaVuSans-4c" x="1508.613281"/>
      <use xlink:href="#DejaVuSans-61" x="1564.326172"/>
      <use xlink:href="#DejaVuSans-6e" x="1625.605469"/>
      <use xlink:href="#DejaVuSans-64" x="1688.984375"/>
      <use xlink:href="#DejaVuSans-69" x="1752.460938"/>
      <use xlink:href="#DejaVuSans-6e" x="1780.244141"/>
      <use xlink:href="#DejaVuSans-67" x="1843.623047"/>
     </g>
    </g>
    <g id="line2d_61">
     <path d="M 756.907572 137.322896 
L 766.907572 137.322896 
L 776.907572 137.322896 
" style="fill: none; stroke: #9467bd; stroke-width: 1.5; stroke-linecap: square"/>
    </g>
    <g id="text_33">
     <!-- REQ-LAND-03 Climb Gradient Approach -->
     <g transform="translate(784.907572 140.822896) scale(0.1 -0.1)">
      <defs>
       <path id="DejaVuSans-63" d="M 3122 3366 
L 3122 2828 
Q 2878 2963 2633 3030 
Q 2388 3097 2138 3097 
Q 1578 3097 1268 2742 
Q 959 2388 959 1747 
Q 959 1106 1268 751 
Q 1578 397 2138 397 
Q 2388 397 2633 464 
Q 2878 531 3122 666 
L 3122 134 
Q 2881 22 2623 -34 
Q 2366 -91 2075 -91 
Q 1284 -91 818 406 
Q 353 903 353 1747 
Q 353 2603 823 3093 
Q 1294 3584 2113 3584 
Q 2378 3584 2631 3529 
Q 2884 3475 3122 3366 
z
" transform="scale(0.015625)"/>
      </defs>
      <use xlink:href="#DejaVuSans-52"/>
      <use xlink:href="#DejaVuSans-45" x="69.482422"/>
      <use xlink:href="#DejaVuSans-51" x="132.666016"/>
      <use xlink:href="#DejaVuSans-2d" x="214.126953"/>
      <use xlink:href="#DejaVuSans-4c" x="250.210938"/>
      <use xlink:href="#DejaVuSans-41" x="308.173828"/>
      <use xlink:href="#DejaVuSans-4e" x="376.582031"/>
      <use xlink:href="#DejaVuSans-44" x="451.386719"/>
      <use xlink:href="#DejaVuSans-2d" x="528.388672"/>
      <use xlink:href="#DejaVuSans-30" x="564.472656"/>
      <use xlink:href="#DejaVuSans-33" x="628.095703"/>
      <use xlink:href="#DejaVuSans-20" x="691.71875"/>
      <use xlink:href="#DejaVuSans-43" x="723.505859"/>
      <use xlink:href="#DejaVuSans-6c" x="793.330078"/>
      <use xlink:href="#DejaVuSans-69" x="821.113281"/>
      <use xlink:href="#DejaVuSans-6d" x="848.896484"/>
      <use xlink:href="#DejaVuSans-62" x="946.308594"/>
      <use xlink:href="#DejaVuSans-20" x="1009.785156"/>
      <use xlink:href="#DejaVuSans-47" x="1041.572266"/>
      <use xlink:href="#DejaVuSans-72" x="1119.0625"/>
      <use xlink:href="#DejaVuSans-61" x="1160.175781"/>
      <use xlink:href="#DejaVuSans-64" x="1221.455078"/>
      <use xlink:href="#DejaVuSans-69" x="1284.931641"/>
      <use xlink:href="#DejaVuSans-65" x="1312.714844"/>
      <use xlink:href="#DejaVuSans-6e" x="1374.238281"/>
      <use xlink:href="#DejaVuSans-74" x="1437.617188"/>
      <use xlink:href="#DejaVuSans-20" x="1476.826172"/>
      <use xlink:href="#DejaVuSans-41" x="1508.613281"/>
      <use xlink:href="#DejaVuSans-70" x="1577.021484"/>
      <use xlink:href="#DejaVuSans-70" x="1640.498047"/>
      <use xlink:href="#DejaVuSans-72" x="1703.974609"/>
      <use xlink:href="#DejaVuSans-6f" x="1742.837891"/>
      <use xlink:href="#DejaVuSans-61" x="1804.019531"/>
      <use xlink:href="#DejaVuSans-63" x="1865.298828"/>
      <use xlink:href="#DejaVuSans-68" x="1920.279297"/>
     </g>
    </g>
    <g id="line2d_62">
     <path d="M 756.907572 152.001021 
L 776.907572 152.001021 
" style="fill: none; stroke: #0000ff; stroke-width: 1.5"/>
    </g>
    <g id="text_34">
     <!-- REQ-LAND-05 Minimum Speed -->
     <g transform="translate(784.907572 155.501021) scale(0.1 -0.1)">
      <defs>
       <path id="DejaVuSans-4d" d="M 628 4666 
L 1569 4666 
L 2759 1491 
L 3956 4666 
L 4897 4666 
L 4897 0 
L 4281 0 
L 4281 4097 
L 3078 897 
L 2444 897 
L 1241 4097 
L 1241 0 
L 628 0 
L 628 4666 
z
" transform="scale(0.015625)"/>
      </defs>
      <use xlink:href="#DejaVuSans-52"/>
      <use xlink:href="#DejaVuSans-45" x="69.482422"/>
      <use xlink:href="#DejaVuSans-51" x="132.666016"/>
      <use xlink:href="#DejaVuSans-2d" x="214.126953"/>
      <use xlink:href="#DejaVuSans-4c" x="250.210938"/>
      <use xlink:href="#DejaVuSans-41" x="308.173828"/>
      <use xlink:href="#DejaVuSans-4e" x="376.582031"/>
      <use xlink:href="#DejaVuSans-44" x="451.386719"/>
      <use xlink:href="#DejaVuSans-2d" x="528.388672"/>
      <use xlink:href="#DejaVuSans-30" x="564.472656"/>
      <use xlink:href="#DejaVuSans-35" x="628.095703"/>
      <use xlink:href="#DejaVuSans-20" x="691.71875"/>
      <use xlink:href="#DejaVuSans-4d" x="723.505859"/>
      <use xlink:href="#DejaVuSans-69" x="809.785156"/>
      <use xlink:href="#DejaVuSans-6e" x="837.568359"/>
      <use xlink:href="#DejaVuSans-69" x="900.947266"/>
      <use xlink:href="#DejaVuSans-6d" x="928.730469"/>
      <use xlink:href="#DejaVuSans-75" x="1026.142578"/>
      <use xlink:href="#DejaVuSans-6d" x="1089.521484"/>
      <use xlink:href="#DejaVuSans-20" x="1186.933594"/>
      <use xlink:href="#DejaVuSans-53" x="1218.720703"/>
      <use xlink:href="#DejaVuSans-70" x="1282.197266"/>
      <use xlink:href="#DejaVuSans-65" x="1345.673828"/>
      <use xlink:href="#DejaVuSans-65" x="1407.197266"/>
      <use xlink:href="#DejaVuSans-64" x="1468.720703"/>
     </g>
    </g>
    <g id="PathCollection_3">
     <g>
      <use xlink:href="#m147e30ee33" x="766.907572" y="167.554146" style="fill: #0000ff; stroke: #0000ff"/>
     </g>
    </g>
    <g id="text_35">
     <!-- Reference Aircraft -->
     <g transform="translate(784.907572 170.179146) scale(0.1 -0.1)">
      <use xlink:href="#DejaVuSans-52"/>
      <use xlink:href="#DejaVuSans-65" x="64.982422"/>
      <use xlink:href="#DejaVuSans-66" x="126.505859"/>
      <use xlink:href="#DejaVuSans-65" x="161.710938"/>
      <use xlink:href="#DejaVuSans-72" x="223.234375"/>
      <use xlink:href="#DejaVuSans-65" x="262.097656"/>
      <use xlink:href="#DejaVuSans-6e" x="323.621094"/>
      <use xlink:href="#DejaVuSans-63" x="387"/>
      <use xlink:href="#DejaVuSans-65" x="441.980469"/>
      <use xlink:href="#DejaVuSans-20" x="503.503906"/>
      <use xlink:href="#DejaVuSans-41" x="535.291016"/>
      <use xlink:href="#DejaVuSans-69" x="603.699219"/>
      <use xlink:href="#DejaVuSans-72" x="631.482422"/>
      <use xlink:href="#DejaVuSans-63" x="670.345703"/>
      <use xlink:href="#DejaVuSans-72" x="725.326172"/>
      <use xlink:href="#DejaVuSans-61" x="766.439453"/>
      <use xlink:href="#DejaVuSans-66" x="827.71875"/>
      <use xlink:href="#DejaVuSans-74" x="861.173828"/>
     </g>
    </g>
    <g id="PathCollection_4">
     <g>
      <use xlink:href="#m8cf6065c47" x="766.907572" y="182.232271" style="fill: #ff0000; stroke: #ff0000"/>
     </g>
    </g>
    <g id="text_36">
     <!-- Design Point -->
     <g transform="translate(784.907572 184.857271) scale(0.1 -0.1)">
      <use xlink:href="#DejaVuSans-44"/>
      <use xlink:href="#DejaVuSans-65" x="77.001953"/>
      <use xlink:href="#DejaVuSans-73" x="138.525391"/>
      <use xlink:href="#DejaVuSans-69" x="190.625"/>
      <use xlink:href="#DejaVuSans-67" x="218.408203"/>
      <use xlink:href="#DejaVuSans-6e" x="281.884766"/>
      <use xlink:href="#DejaVuSans-20" x="345.263672"/>
      <use xlink:href="#DejaVuSans-50" x="377.050781"/>
      <use xlink:href="#DejaVuSans-6f" x="433.728516"/>
      <use xlink:href="#DejaVuSans-69" x="494.910156"/>
      <use xlink:href="#DejaVuSans-6e" x="522.693359"/>
      <use xlink:href="#DejaVuSans-74" x="586.072266"/>
     </g>
    </g>
   </g>
  </g>
 </g>
 <defs>
  <clipPath id="p5f12f358a4">
   <rect x="39.58149" y="6.799459" width="952.69327" height="607.844051"/>
  </clipPath>
 </defs>
</svg>
