<?xml version="1.0" encoding="utf-8" standalone="no"?>
<!DOCTYPE svg PUBLIC "-//W3C//DTD SVG 1.1//EN"
  "http://www.w3.org/Graphics/SVG/1.1/DTD/svg11.dtd">
<svg xmlns:xlink="http://www.w3.org/1999/xlink" width="504pt" height="360pt" viewBox="0 0 504 360" xmlns="http://www.w3.org/2000/svg" version="1.1">
 <metadata>
  <rdf:RDF xmlns:dc="http://purl.org/dc/elements/1.1/" xmlns:cc="http://creativecommons.org/ns#" xmlns:rdf="http://www.w3.org/1999/02/22-rdf-syntax-ns#">
   <cc:Work>
    <dc:type rdf:resource="http://purl.org/dc/dcmitype/StillImage"/>
    <dc:date>2024-09-28T18:51:04.494609</dc:date>
    <dc:format>image/svg+xml</dc:format>
    <dc:creator>
     <cc:Agent>
      <dc:title>Matplotlib v3.8.0, https://matplotlib.org/</dc:title>
     </cc:Agent>
    </dc:creator>
   </cc:Work>
  </rdf:RDF>
 </metadata>
 <defs>
  <style type="text/css">*{stroke-linejoin: round; stroke-linecap: butt}</style>
 </defs>
 <g id="figure_1">
  <g id="patch_1">
   <path d="M 0 360 
L 504 360 
L 504 0 
L 0 0 
z
" style="fill: #ffffff"/>
  </g>
  <g id="axes_1">
   <g id="patch_2">
    <path d="M 39.58149 325.821635 
L 488.27476 325.821635 
L 488.27476 6.799459 
L 39.58149 6.799459 
z
" style="fill: #ffffff"/>
   </g>
   <g id="PathCollection_1">
    <defs>
     <path id="m208ae1380b" d="M 0 2.236068 
C 0.593012 2.236068 1.161816 2.000462 1.581139 1.581139 
C 2.000462 1.161816 2.236068 0.593012 2.236068 0 
C 2.236068 -0.593012 2.000462 -1.161816 1.581139 -1.581139 
C 1.161816 -2.000462 0.593012 -2.236068 0 -2.236068 
C -0.593012 -2.236068 -1.161816 -2.000462 -1.581139 -1.581139 
C -2.000462 -1.161816 -2.236068 -0.593012 -2.236068 0 
C -2.236068 0.593012 -2.000462 1.161816 -1.581139 1.581139 
C -1.161816 2.000462 -0.593012 2.236068 0 2.236068 
z
" style="stroke: #0000ff"/>
    </defs>
    <g clip-path="url(#p83196f05de)">
     <use xlink:href="#m208ae1380b" x="374.536233" y="195.934035" style="fill: #0000ff; stroke: #0000ff"/>
     <use xlink:href="#m208ae1380b" x="426.083786" y="195.022543" style="fill: #0000ff; stroke: #0000ff"/>
     <use xlink:href="#m208ae1380b" x="328.101697" y="209.606414" style="fill: #0000ff; stroke: #0000ff"/>
     <use xlink:href="#m208ae1380b" x="407.979534" y="208.694922" style="fill: #0000ff; stroke: #0000ff"/>
     <use xlink:href="#m208ae1380b" x="430.88376" y="182.717402" style="fill: #0000ff; stroke: #0000ff"/>
     <use xlink:href="#m208ae1380b" x="344.797261" y="200.035748" style="fill: #0000ff; stroke: #0000ff"/>
     <use xlink:href="#m208ae1380b" x="378.084041" y="197.301273" style="fill: #0000ff; stroke: #0000ff"/>
     <use xlink:href="#m208ae1380b" x="301.02358" y="190.920829" style="fill: #0000ff; stroke: #0000ff"/>
    </g>
   </g>
   <g id="matplotlib.axis_1">
    <g id="xtick_1">
     <g id="line2d_1">
      <path d="M 70.885672 325.821635 
L 70.885672 6.799459 
" clip-path="url(#p83196f05de)" style="fill: none; stroke: #b0b0b0; stroke-width: 0.8; stroke-linecap: square"/>
     </g>
     <g id="line2d_2">
      <defs>
       <path id="ma33a8479f2" d="M 0 0 
L 0 3.5 
" style="stroke: #000000; stroke-width: 0.8"/>
      </defs>
      <g>
       <use xlink:href="#ma33a8479f2" x="70.885672" y="325.821635" style="stroke: #000000; stroke-width: 0.8"/>
      </g>
     </g>
     <g id="text_1">
      <!-- 1000 -->
      <g transform="translate(58.160672 340.420073) scale(0.1 -0.1)">
       <defs>
        <path id="DejaVuSans-31" d="M 794 531 
L 1825 531 
L 1825 4091 
L 703 3866 
L 703 4441 
L 1819 4666 
L 2450 4666 
L 2450 531 
L 3481 531 
L 3481 0 
L 794 0 
L 794 531 
z
" transform="scale(0.015625)"/>
        <path id="DejaVuSans-30" d="M 2034 4250 
Q 1547 4250 1301 3770 
Q 1056 3291 1056 2328 
Q 1056 1369 1301 889 
Q 1547 409 2034 409 
Q 2525 409 2770 889 
Q 3016 1369 3016 2328 
Q 3016 3291 2770 3770 
Q 2525 4250 2034 4250 
z
M 2034 4750 
Q 2819 4750 3233 4129 
Q 3647 3509 3647 2328 
Q 3647 1150 3233 529 
Q 2819 -91 2034 -91 
Q 1250 -91 836 529 
Q 422 1150 422 2328 
Q 422 3509 836 4129 
Q 1250 4750 2034 4750 
z
" transform="scale(0.015625)"/>
       </defs>
       <use xlink:href="#DejaVuSans-31"/>
       <use xlink:href="#DejaVuSans-30" x="63.623047"/>
       <use xlink:href="#DejaVuSans-30" x="127.246094"/>
       <use xlink:href="#DejaVuSans-30" x="190.869141"/>
      </g>
     </g>
    </g>
    <g id="xtick_2">
     <g id="line2d_3">
      <path d="M 123.059308 325.821635 
L 123.059308 6.799459 
" clip-path="url(#p83196f05de)" style="fill: none; stroke: #b0b0b0; stroke-width: 0.8; stroke-linecap: square"/>
     </g>
     <g id="line2d_4">
      <g>
       <use xlink:href="#ma33a8479f2" x="123.059308" y="325.821635" style="stroke: #000000; stroke-width: 0.8"/>
      </g>
     </g>
     <g id="text_2">
      <!-- 2000 -->
      <g transform="translate(110.334308 340.420073) scale(0.1 -0.1)">
       <defs>
        <path id="DejaVuSans-32" d="M 1228 531 
L 3431 531 
L 3431 0 
L 469 0 
L 469 531 
Q 828 903 1448 1529 
Q 2069 2156 2228 2338 
Q 2531 2678 2651 2914 
Q 2772 3150 2772 3378 
Q 2772 3750 2511 3984 
Q 2250 4219 1831 4219 
Q 1534 4219 1204 4116 
Q 875 4013 500 3803 
L 500 4441 
Q 881 4594 1212 4672 
Q 1544 4750 1819 4750 
Q 2544 4750 2975 4387 
Q 3406 4025 3406 3419 
Q 3406 3131 3298 2873 
Q 3191 2616 2906 2266 
Q 2828 2175 2409 1742 
Q 1991 1309 1228 531 
z
" transform="scale(0.015625)"/>
       </defs>
       <use xlink:href="#DejaVuSans-32"/>
       <use xlink:href="#DejaVuSans-30" x="63.623047"/>
       <use xlink:href="#DejaVuSans-30" x="127.246094"/>
       <use xlink:href="#DejaVuSans-30" x="190.869141"/>
      </g>
     </g>
    </g>
    <g id="xtick_3">
     <g id="line2d_5">
      <path d="M 175.232944 325.821635 
L 175.232944 6.799459 
" clip-path="url(#p83196f05de)" style="fill: none; stroke: #b0b0b0; stroke-width: 0.8; stroke-linecap: square"/>
     </g>
     <g id="line2d_6">
      <g>
       <use xlink:href="#ma33a8479f2" x="175.232944" y="325.821635" style="stroke: #000000; stroke-width: 0.8"/>
      </g>
     </g>
     <g id="text_3">
      <!-- 3000 -->
      <g transform="translate(162.507944 340.420073) scale(0.1 -0.1)">
       <defs>
        <path id="DejaVuSans-33" d="M 2597 2516 
Q 3050 2419 3304 2112 
Q 3559 1806 3559 1356 
Q 3559 666 3084 287 
Q 2609 -91 1734 -91 
Q 1441 -91 1130 -33 
Q 819 25 488 141 
L 488 750 
Q 750 597 1062 519 
Q 1375 441 1716 441 
Q 2309 441 2620 675 
Q 2931 909 2931 1356 
Q 2931 1769 2642 2001 
Q 2353 2234 1838 2234 
L 1294 2234 
L 1294 2753 
L 1863 2753 
Q 2328 2753 2575 2939 
Q 2822 3125 2822 3475 
Q 2822 3834 2567 4026 
Q 2313 4219 1838 4219 
Q 1578 4219 1281 4162 
Q 984 4106 628 3988 
L 628 4550 
Q 988 4650 1302 4700 
Q 1616 4750 1894 4750 
Q 2613 4750 3031 4423 
Q 3450 4097 3450 3541 
Q 3450 3153 3228 2886 
Q 3006 2619 2597 2516 
z
" transform="scale(0.015625)"/>
       </defs>
       <use xlink:href="#DejaVuSans-33"/>
       <use xlink:href="#DejaVuSans-30" x="63.623047"/>
       <use xlink:href="#DejaVuSans-30" x="127.246094"/>
       <use xlink:href="#DejaVuSans-30" x="190.869141"/>
      </g>
     </g>
    </g>
    <g id="xtick_4">
     <g id="line2d_7">
      <path d="M 227.40658 325.821635 
L 227.40658 6.799459 
" clip-path="url(#p83196f05de)" style="fill: none; stroke: #b0b0b0; stroke-width: 0.8; stroke-linecap: square"/>
     </g>
     <g id="line2d_8">
      <g>
       <use xlink:href="#ma33a8479f2" x="227.40658" y="325.821635" style="stroke: #000000; stroke-width: 0.8"/>
      </g>
     </g>
     <g id="text_4">
      <!-- 4000 -->
      <g transform="translate(214.68158 340.420073) scale(0.1 -0.1)">
       <defs>
        <path id="DejaVuSans-34" d="M 2419 4116 
L 825 1625 
L 2419 1625 
L 2419 4116 
z
M 2253 4666 
L 3047 4666 
L 3047 1625 
L 3713 1625 
L 3713 1100 
L 3047 1100 
L 3047 0 
L 2419 0 
L 2419 1100 
L 313 1100 
L 313 1709 
L 2253 4666 
z
" transform="scale(0.015625)"/>
       </defs>
       <use xlink:href="#DejaVuSans-34"/>
       <use xlink:href="#DejaVuSans-30" x="63.623047"/>
       <use xlink:href="#DejaVuSans-30" x="127.246094"/>
       <use xlink:href="#DejaVuSans-30" x="190.869141"/>
      </g>
     </g>
    </g>
    <g id="xtick_5">
     <g id="line2d_9">
      <path d="M 279.580216 325.821635 
L 279.580216 6.799459 
" clip-path="url(#p83196f05de)" style="fill: none; stroke: #b0b0b0; stroke-width: 0.8; stroke-linecap: square"/>
     </g>
     <g id="line2d_10">
      <g>
       <use xlink:href="#ma33a8479f2" x="279.580216" y="325.821635" style="stroke: #000000; stroke-width: 0.8"/>
      </g>
     </g>
     <g id="text_5">
      <!-- 5000 -->
      <g transform="translate(266.855216 340.420073) scale(0.1 -0.1)">
       <defs>
        <path id="DejaVuSans-35" d="M 691 4666 
L 3169 4666 
L 3169 4134 
L 1269 4134 
L 1269 2991 
Q 1406 3038 1543 3061 
Q 1681 3084 1819 3084 
Q 2600 3084 3056 2656 
Q 3513 2228 3513 1497 
Q 3513 744 3044 326 
Q 2575 -91 1722 -91 
Q 1428 -91 1123 -41 
Q 819 9 494 109 
L 494 744 
Q 775 591 1075 516 
Q 1375 441 1709 441 
Q 2250 441 2565 725 
Q 2881 1009 2881 1497 
Q 2881 1984 2565 2268 
Q 2250 2553 1709 2553 
Q 1456 2553 1204 2497 
Q 953 2441 691 2322 
L 691 4666 
z
" transform="scale(0.015625)"/>
       </defs>
       <use xlink:href="#DejaVuSans-35"/>
       <use xlink:href="#DejaVuSans-30" x="63.623047"/>
       <use xlink:href="#DejaVuSans-30" x="127.246094"/>
       <use xlink:href="#DejaVuSans-30" x="190.869141"/>
      </g>
     </g>
    </g>
    <g id="xtick_6">
     <g id="line2d_11">
      <path d="M 331.753852 325.821635 
L 331.753852 6.799459 
" clip-path="url(#p83196f05de)" style="fill: none; stroke: #b0b0b0; stroke-width: 0.8; stroke-linecap: square"/>
     </g>
     <g id="line2d_12">
      <g>
       <use xlink:href="#ma33a8479f2" x="331.753852" y="325.821635" style="stroke: #000000; stroke-width: 0.8"/>
      </g>
     </g>
     <g id="text_6">
      <!-- 6000 -->
      <g transform="translate(319.028852 340.420073) scale(0.1 -0.1)">
       <defs>
        <path id="DejaVuSans-36" d="M 2113 2584 
Q 1688 2584 1439 2293 
Q 1191 2003 1191 1497 
Q 1191 994 1439 701 
Q 1688 409 2113 409 
Q 2538 409 2786 701 
Q 3034 994 3034 1497 
Q 3034 2003 2786 2293 
Q 2538 2584 2113 2584 
z
M 3366 4563 
L 3366 3988 
Q 3128 4100 2886 4159 
Q 2644 4219 2406 4219 
Q 1781 4219 1451 3797 
Q 1122 3375 1075 2522 
Q 1259 2794 1537 2939 
Q 1816 3084 2150 3084 
Q 2853 3084 3261 2657 
Q 3669 2231 3669 1497 
Q 3669 778 3244 343 
Q 2819 -91 2113 -91 
Q 1303 -91 875 529 
Q 447 1150 447 2328 
Q 447 3434 972 4092 
Q 1497 4750 2381 4750 
Q 2619 4750 2861 4703 
Q 3103 4656 3366 4563 
z
" transform="scale(0.015625)"/>
       </defs>
       <use xlink:href="#DejaVuSans-36"/>
       <use xlink:href="#DejaVuSans-30" x="63.623047"/>
       <use xlink:href="#DejaVuSans-30" x="127.246094"/>
       <use xlink:href="#DejaVuSans-30" x="190.869141"/>
      </g>
     </g>
    </g>
    <g id="xtick_7">
     <g id="line2d_13">
      <path d="M 383.927488 325.821635 
L 383.927488 6.799459 
" clip-path="url(#p83196f05de)" style="fill: none; stroke: #b0b0b0; stroke-width: 0.8; stroke-linecap: square"/>
     </g>
     <g id="line2d_14">
      <g>
       <use xlink:href="#ma33a8479f2" x="383.927488" y="325.821635" style="stroke: #000000; stroke-width: 0.8"/>
      </g>
     </g>
     <g id="text_7">
      <!-- 7000 -->
      <g transform="translate(371.202488 340.420073) scale(0.1 -0.1)">
       <defs>
        <path id="DejaVuSans-37" d="M 525 4666 
L 3525 4666 
L 3525 4397 
L 1831 0 
L 1172 0 
L 2766 4134 
L 525 4134 
L 525 4666 
z
" transform="scale(0.015625)"/>
       </defs>
       <use xlink:href="#DejaVuSans-37"/>
       <use xlink:href="#DejaVuSans-30" x="63.623047"/>
       <use xlink:href="#DejaVuSans-30" x="127.246094"/>
       <use xlink:href="#DejaVuSans-30" x="190.869141"/>
      </g>
     </g>
    </g>
    <g id="xtick_8">
     <g id="line2d_15">
      <path d="M 436.101124 325.821635 
L 436.101124 6.799459 
" clip-path="url(#p83196f05de)" style="fill: none; stroke: #b0b0b0; stroke-width: 0.8; stroke-linecap: square"/>
     </g>
     <g id="line2d_16">
      <g>
       <use xlink:href="#ma33a8479f2" x="436.101124" y="325.821635" style="stroke: #000000; stroke-width: 0.8"/>
      </g>
     </g>
     <g id="text_8">
      <!-- 8000 -->
      <g transform="translate(423.376124 340.420073) scale(0.1 -0.1)">
       <defs>
        <path id="DejaVuSans-38" d="M 2034 2216 
Q 1584 2216 1326 1975 
Q 1069 1734 1069 1313 
Q 1069 891 1326 650 
Q 1584 409 2034 409 
Q 2484 409 2743 651 
Q 3003 894 3003 1313 
Q 3003 1734 2745 1975 
Q 2488 2216 2034 2216 
z
M 1403 2484 
Q 997 2584 770 2862 
Q 544 3141 544 3541 
Q 544 4100 942 4425 
Q 1341 4750 2034 4750 
Q 2731 4750 3128 4425 
Q 3525 4100 3525 3541 
Q 3525 3141 3298 2862 
Q 3072 2584 2669 2484 
Q 3125 2378 3379 2068 
Q 3634 1759 3634 1313 
Q 3634 634 3220 271 
Q 2806 -91 2034 -91 
Q 1263 -91 848 271 
Q 434 634 434 1313 
Q 434 1759 690 2068 
Q 947 2378 1403 2484 
z
M 1172 3481 
Q 1172 3119 1398 2916 
Q 1625 2713 2034 2713 
Q 2441 2713 2670 2916 
Q 2900 3119 2900 3481 
Q 2900 3844 2670 4047 
Q 2441 4250 2034 4250 
Q 1625 4250 1398 4047 
Q 1172 3844 1172 3481 
z
" transform="scale(0.015625)"/>
       </defs>
       <use xlink:href="#DejaVuSans-38"/>
       <use xlink:href="#DejaVuSans-30" x="63.623047"/>
       <use xlink:href="#DejaVuSans-30" x="127.246094"/>
       <use xlink:href="#DejaVuSans-30" x="190.869141"/>
      </g>
     </g>
    </g>
    <g id="xtick_9">
     <g id="line2d_17">
      <path d="M 488.27476 325.821635 
L 488.27476 6.799459 
" clip-path="url(#p83196f05de)" style="fill: none; stroke: #b0b0b0; stroke-width: 0.8; stroke-linecap: square"/>
     </g>
     <g id="line2d_18">
      <g>
       <use xlink:href="#ma33a8479f2" x="488.27476" y="325.821635" style="stroke: #000000; stroke-width: 0.8"/>
      </g>
     </g>
     <g id="text_9">
      <!-- 9000 -->
      <g transform="translate(475.54976 340.420073) scale(0.1 -0.1)">
       <defs>
        <path id="DejaVuSans-39" d="M 703 97 
L 703 672 
Q 941 559 1184 500 
Q 1428 441 1663 441 
Q 2288 441 2617 861 
Q 2947 1281 2994 2138 
Q 2813 1869 2534 1725 
Q 2256 1581 1919 1581 
Q 1219 1581 811 2004 
Q 403 2428 403 3163 
Q 403 3881 828 4315 
Q 1253 4750 1959 4750 
Q 2769 4750 3195 4129 
Q 3622 3509 3622 2328 
Q 3622 1225 3098 567 
Q 2575 -91 1691 -91 
Q 1453 -91 1209 -44 
Q 966 3 703 97 
z
M 1959 2075 
Q 2384 2075 2632 2365 
Q 2881 2656 2881 3163 
Q 2881 3666 2632 3958 
Q 2384 4250 1959 4250 
Q 1534 4250 1286 3958 
Q 1038 3666 1038 3163 
Q 1038 2656 1286 2365 
Q 1534 2075 1959 2075 
z
" transform="scale(0.015625)"/>
       </defs>
       <use xlink:href="#DejaVuSans-39"/>
       <use xlink:href="#DejaVuSans-30" x="63.623047"/>
       <use xlink:href="#DejaVuSans-30" x="127.246094"/>
       <use xlink:href="#DejaVuSans-30" x="190.869141"/>
      </g>
     </g>
    </g>
    <g id="text_10">
     <!-- $W/S\ [N/m^2]$ -->
     <g transform="translate(235.678125 354.920073) scale(0.1 -0.1)">
      <defs>
       <path id="DejaVuSans-Oblique-57" d="M 616 4666 
L 1228 4666 
L 1453 697 
L 3213 4666 
L 3916 4666 
L 4147 697 
L 5888 4666 
L 6528 4666 
L 4453 0 
L 3659 0 
L 3444 3891 
L 1697 0 
L 903 0 
L 616 4666 
z
" transform="scale(0.015625)"/>
       <path id="DejaVuSans-2f" d="M 1625 4666 
L 2156 4666 
L 531 -594 
L 0 -594 
L 1625 4666 
z
" transform="scale(0.015625)"/>
       <path id="DejaVuSans-Oblique-53" d="M 3859 4513 
L 3738 3897 
Q 3422 4066 3111 4152 
Q 2800 4238 2509 4238 
Q 1944 4238 1609 3991 
Q 1275 3744 1275 3334 
Q 1275 3109 1398 2989 
Q 1522 2869 2034 2731 
L 2413 2638 
Q 3053 2472 3303 2217 
Q 3553 1963 3553 1503 
Q 3553 797 2998 353 
Q 2444 -91 1538 -91 
Q 1166 -91 791 -17 
Q 416 56 38 206 
L 166 856 
Q 513 641 861 531 
Q 1209 422 1556 422 
Q 2147 422 2503 684 
Q 2859 947 2859 1369 
Q 2859 1650 2717 1795 
Q 2575 1941 2106 2059 
L 1728 2156 
Q 1081 2325 845 2545 
Q 609 2766 609 3163 
Q 609 3859 1145 4304 
Q 1681 4750 2541 4750 
Q 2875 4750 3203 4690 
Q 3531 4631 3859 4513 
z
" transform="scale(0.015625)"/>
       <path id="DejaVuSans-5b" d="M 550 4863 
L 1875 4863 
L 1875 4416 
L 1125 4416 
L 1125 -397 
L 1875 -397 
L 1875 -844 
L 550 -844 
L 550 4863 
z
" transform="scale(0.015625)"/>
       <path id="DejaVuSans-Oblique-4e" d="M 1081 4666 
L 1931 4666 
L 3219 666 
L 4000 4666 
L 4616 4666 
L 3706 0 
L 2853 0 
L 1569 4025 
L 788 0 
L 172 0 
L 1081 4666 
z
" transform="scale(0.015625)"/>
       <path id="DejaVuSans-Oblique-6d" d="M 5747 2113 
L 5338 0 
L 4763 0 
L 5166 2094 
Q 5191 2228 5203 2325 
Q 5216 2422 5216 2491 
Q 5216 2772 5059 2928 
Q 4903 3084 4622 3084 
Q 4203 3084 3875 2770 
Q 3547 2456 3450 1953 
L 3066 0 
L 2491 0 
L 2900 2094 
Q 2925 2209 2937 2307 
Q 2950 2406 2950 2484 
Q 2950 2769 2794 2926 
Q 2638 3084 2363 3084 
Q 1938 3084 1609 2770 
Q 1281 2456 1184 1953 
L 800 0 
L 225 0 
L 909 3500 
L 1484 3500 
L 1375 2956 
Q 1609 3263 1923 3423 
Q 2238 3584 2597 3584 
Q 2978 3584 3223 3384 
Q 3469 3184 3519 2828 
Q 3781 3197 4126 3390 
Q 4472 3584 4856 3584 
Q 5306 3584 5551 3325 
Q 5797 3066 5797 2591 
Q 5797 2488 5784 2364 
Q 5772 2241 5747 2113 
z
" transform="scale(0.015625)"/>
       <path id="DejaVuSans-5d" d="M 1947 4863 
L 1947 -844 
L 622 -844 
L 622 -397 
L 1369 -397 
L 1369 4416 
L 622 4416 
L 622 4863 
L 1947 4863 
z
" transform="scale(0.015625)"/>
      </defs>
      <use xlink:href="#DejaVuSans-Oblique-57" transform="translate(0 0.765625)"/>
      <use xlink:href="#DejaVuSans-2f" transform="translate(98.876953 0.765625)"/>
      <use xlink:href="#DejaVuSans-Oblique-53" transform="translate(132.568359 0.765625)"/>
      <use xlink:href="#DejaVuSans-5b" transform="translate(228.5153 0.765625)"/>
      <use xlink:href="#DejaVuSans-Oblique-4e" transform="translate(267.528972 0.765625)"/>
      <use xlink:href="#DejaVuSans-2f" transform="translate(342.33366 0.765625)"/>
      <use xlink:href="#DejaVuSans-Oblique-6d" transform="translate(376.025066 0.765625)"/>
      <use xlink:href="#DejaVuSans-32" transform="translate(478.087071 39.046875) scale(0.7)"/>
      <use xlink:href="#DejaVuSans-5d" transform="translate(525.357579 0.765625)"/>
     </g>
    </g>
   </g>
   <g id="matplotlib.axis_2">
    <g id="ytick_1">
     <g id="line2d_19">
      <path d="M 39.58149 325.821635 
L 488.27476 325.821635 
" clip-path="url(#p83196f05de)" style="fill: none; stroke: #b0b0b0; stroke-width: 0.8; stroke-linecap: square"/>
     </g>
     <g id="line2d_20">
      <defs>
       <path id="m6c9fcefcc1" d="M 0 0 
L -3.5 0 
" style="stroke: #000000; stroke-width: 0.8"/>
      </defs>
      <g>
       <use xlink:href="#m6c9fcefcc1" x="39.58149" y="325.821635" style="stroke: #000000; stroke-width: 0.8"/>
      </g>
     </g>
     <g id="text_11">
      <!-- 0.0 -->
      <g transform="translate(16.678365 329.620854) scale(0.1 -0.1)">
       <defs>
        <path id="DejaVuSans-2e" d="M 684 794 
L 1344 794 
L 1344 0 
L 684 0 
L 684 794 
z
" transform="scale(0.015625)"/>
       </defs>
       <use xlink:href="#DejaVuSans-30"/>
       <use xlink:href="#DejaVuSans-2e" x="63.623047"/>
       <use xlink:href="#DejaVuSans-30" x="95.410156"/>
      </g>
     </g>
    </g>
    <g id="ytick_2">
     <g id="line2d_21">
      <path d="M 39.58149 280.247038 
L 488.27476 280.247038 
" clip-path="url(#p83196f05de)" style="fill: none; stroke: #b0b0b0; stroke-width: 0.8; stroke-linecap: square"/>
     </g>
     <g id="line2d_22">
      <g>
       <use xlink:href="#m6c9fcefcc1" x="39.58149" y="280.247038" style="stroke: #000000; stroke-width: 0.8"/>
      </g>
     </g>
     <g id="text_12">
      <!-- 0.1 -->
      <g transform="translate(16.678365 284.046257) scale(0.1 -0.1)">
       <use xlink:href="#DejaVuSans-30"/>
       <use xlink:href="#DejaVuSans-2e" x="63.623047"/>
       <use xlink:href="#DejaVuSans-31" x="95.410156"/>
      </g>
     </g>
    </g>
    <g id="ytick_3">
     <g id="line2d_23">
      <path d="M 39.58149 234.672442 
L 488.27476 234.672442 
" clip-path="url(#p83196f05de)" style="fill: none; stroke: #b0b0b0; stroke-width: 0.8; stroke-linecap: square"/>
     </g>
     <g id="line2d_24">
      <g>
       <use xlink:href="#m6c9fcefcc1" x="39.58149" y="234.672442" style="stroke: #000000; stroke-width: 0.8"/>
      </g>
     </g>
     <g id="text_13">
      <!-- 0.2 -->
      <g transform="translate(16.678365 238.471661) scale(0.1 -0.1)">
       <use xlink:href="#DejaVuSans-30"/>
       <use xlink:href="#DejaVuSans-2e" x="63.623047"/>
       <use xlink:href="#DejaVuSans-32" x="95.410156"/>
      </g>
     </g>
    </g>
    <g id="ytick_4">
     <g id="line2d_25">
      <path d="M 39.58149 189.097845 
L 488.27476 189.097845 
" clip-path="url(#p83196f05de)" style="fill: none; stroke: #b0b0b0; stroke-width: 0.8; stroke-linecap: square"/>
     </g>
     <g id="line2d_26">
      <g>
       <use xlink:href="#m6c9fcefcc1" x="39.58149" y="189.097845" style="stroke: #000000; stroke-width: 0.8"/>
      </g>
     </g>
     <g id="text_14">
      <!-- 0.3 -->
      <g transform="translate(16.678365 192.897064) scale(0.1 -0.1)">
       <use xlink:href="#DejaVuSans-30"/>
       <use xlink:href="#DejaVuSans-2e" x="63.623047"/>
       <use xlink:href="#DejaVuSans-33" x="95.410156"/>
      </g>
     </g>
    </g>
    <g id="ytick_5">
     <g id="line2d_27">
      <path d="M 39.58149 143.523249 
L 488.27476 143.523249 
" clip-path="url(#p83196f05de)" style="fill: none; stroke: #b0b0b0; stroke-width: 0.8; stroke-linecap: square"/>
     </g>
     <g id="line2d_28">
      <g>
       <use xlink:href="#m6c9fcefcc1" x="39.58149" y="143.523249" style="stroke: #000000; stroke-width: 0.8"/>
      </g>
     </g>
     <g id="text_15">
      <!-- 0.4 -->
      <g transform="translate(16.678365 147.322467) scale(0.1 -0.1)">
       <use xlink:href="#DejaVuSans-30"/>
       <use xlink:href="#DejaVuSans-2e" x="63.623047"/>
       <use xlink:href="#DejaVuSans-34" x="95.410156"/>
      </g>
     </g>
    </g>
    <g id="ytick_6">
     <g id="line2d_29">
      <path d="M 39.58149 97.948652 
L 488.27476 97.948652 
" clip-path="url(#p83196f05de)" style="fill: none; stroke: #b0b0b0; stroke-width: 0.8; stroke-linecap: square"/>
     </g>
     <g id="line2d_30">
      <g>
       <use xlink:href="#m6c9fcefcc1" x="39.58149" y="97.948652" style="stroke: #000000; stroke-width: 0.8"/>
      </g>
     </g>
     <g id="text_16">
      <!-- 0.5 -->
      <g transform="translate(16.678365 101.747871) scale(0.1 -0.1)">
       <use xlink:href="#DejaVuSans-30"/>
       <use xlink:href="#DejaVuSans-2e" x="63.623047"/>
       <use xlink:href="#DejaVuSans-35" x="95.410156"/>
      </g>
     </g>
    </g>
    <g id="ytick_7">
     <g id="line2d_31">
      <path d="M 39.58149 52.374055 
L 488.27476 52.374055 
" clip-path="url(#p83196f05de)" style="fill: none; stroke: #b0b0b0; stroke-width: 0.8; stroke-linecap: square"/>
     </g>
     <g id="line2d_32">
      <g>
       <use xlink:href="#m6c9fcefcc1" x="39.58149" y="52.374055" style="stroke: #000000; stroke-width: 0.8"/>
      </g>
     </g>
     <g id="text_17">
      <!-- 0.6 -->
      <g transform="translate(16.678365 56.173274) scale(0.1 -0.1)">
       <use xlink:href="#DejaVuSans-30"/>
       <use xlink:href="#DejaVuSans-2e" x="63.623047"/>
       <use xlink:href="#DejaVuSans-36" x="95.410156"/>
      </g>
     </g>
    </g>
    <g id="ytick_8">
     <g id="line2d_33">
      <path d="M 39.58149 6.799459 
L 488.27476 6.799459 
" clip-path="url(#p83196f05de)" style="fill: none; stroke: #b0b0b0; stroke-width: 0.8; stroke-linecap: square"/>
     </g>
     <g id="line2d_34">
      <g>
       <use xlink:href="#m6c9fcefcc1" x="39.58149" y="6.799459" style="stroke: #000000; stroke-width: 0.8"/>
      </g>
     </g>
     <g id="text_18">
      <!-- 0.7 -->
      <g transform="translate(16.678365 10.598678) scale(0.1 -0.1)">
       <use xlink:href="#DejaVuSans-30"/>
       <use xlink:href="#DejaVuSans-2e" x="63.623047"/>
       <use xlink:href="#DejaVuSans-37" x="95.410156"/>
      </g>
     </g>
    </g>
    <g id="text_19">
     <!-- $T/W\ [N/N]$ -->
     <g transform="translate(10.598678 190.710547) rotate(-90) scale(0.1 -0.1)">
      <defs>
       <path id="DejaVuSans-Oblique-54" d="M 378 4666 
L 4325 4666 
L 4225 4134 
L 2559 4134 
L 1759 0 
L 1125 0 
L 1925 4134 
L 275 4134 
L 378 4666 
z
" transform="scale(0.015625)"/>
      </defs>
      <use xlink:href="#DejaVuSans-Oblique-54" transform="translate(0 0.015625)"/>
      <use xlink:href="#DejaVuSans-2f" transform="translate(61.083984 0.015625)"/>
      <use xlink:href="#DejaVuSans-Oblique-57" transform="translate(94.775391 0.015625)"/>
      <use xlink:href="#DejaVuSans-5b" transform="translate(226.122722 0.015625)"/>
      <use xlink:href="#DejaVuSans-Oblique-4e" transform="translate(265.136394 0.015625)"/>
      <use xlink:href="#DejaVuSans-2f" transform="translate(339.941082 0.015625)"/>
      <use xlink:href="#DejaVuSans-Oblique-4e" transform="translate(373.632488 0.015625)"/>
      <use xlink:href="#DejaVuSans-5d" transform="translate(448.437175 0.015625)"/>
     </g>
    </g>
   </g>
   <g id="LineCollection_1">
    <path clip-path="url(#p83196f05de)" style="fill: none; stroke: #ffa500; stroke-width: 1.5"/>
   </g>
   <g id="LineCollection_2">
    <path d="M 428.647011 325.821635 
L 428.647011 -1 
" clip-path="url(#p83196f05de)" style="fill: none; stroke: #0000ff; stroke-width: 1.5"/>
   </g>
   <g id="line2d_35">
    <path d="M 39.58149 296.918803 
L 44.798854 295.363264 
L 50.016217 293.965274 
L 55.233581 292.683707 
L 60.450944 291.492119 
L 65.668308 290.372365 
L 70.885672 289.362 
L 76.103035 288.453135 
L 81.320399 287.594332 
L 86.537762 286.77923 
L 91.755126 286.002712 
L 96.97249 285.260592 
L 102.189853 284.549401 
L 107.407217 283.866225 
L 112.62458 283.208595 
L 117.841944 282.574396 
L 123.059308 281.961801 
L 128.276671 281.369225 
L 133.494035 280.795279 
L 138.711398 280.23874 
L 143.928762 279.698528 
L 149.146126 279.173681 
L 154.363489 278.66334 
L 159.580853 278.166735 
L 164.798217 277.683175 
L 170.01558 277.212033 
L 175.232944 276.752745 
L 180.450307 276.304796 
L 185.667671 275.867717 
L 190.885035 275.441083 
L 196.102398 275.024503 
L 201.319762 274.617618 
L 206.537125 274.220101 
L 211.754489 273.831649 
L 216.971853 273.451985 
L 222.189216 273.080852 
L 227.40658 272.718014 
L 232.623943 272.36325 
L 237.841307 272.01636 
L 243.058671 271.677154 
L 248.276034 271.34546 
L 253.493398 271.021115 
L 258.710761 270.703971 
L 263.928125 270.393888 
L 269.145489 270.090736 
L 274.362852 269.794397 
L 279.580216 269.504757 
L 284.797579 269.221714 
L 290.014943 268.945171 
L 295.232307 268.675039 
L 300.44967 268.411234 
L 305.667034 268.153679 
L 310.884397 267.902303 
L 316.101761 267.657038 
L 321.319125 267.417823 
L 326.536488 267.184601 
L 331.753852 266.95732 
L 336.971215 266.73593 
L 342.188579 266.520387 
L 347.405943 266.31065 
L 352.623306 266.10668 
L 357.84067 265.908443 
L 363.058033 265.715908 
L 368.275397 265.529045 
L 373.492761 265.347828 
L 378.710124 265.172235 
L 383.927488 265.002244 
L 389.144852 264.837837 
L 394.362215 264.678997 
L 399.579579 264.52571 
L 404.796942 264.377963 
L 410.014306 264.235747 
L 415.23167 264.099053 
L 420.449033 263.967875 
L 425.666397 263.842206 
L 430.88376 263.722044 
L 436.101124 263.607387 
L 441.318488 263.498235 
L 446.535851 263.394588 
L 451.753215 263.296449 
L 456.970578 263.203821 
L 462.187942 263.11671 
L 467.405306 263.035121 
L 472.622669 262.959062 
L 477.840033 262.888541 
L 483.057396 262.823568 
L 488.27476 262.764153 
L 493.492124 262.710308 
L 498.709487 262.662045 
L 503.926851 262.619377 
L 505 262.611755 
" clip-path="url(#p83196f05de)" style="fill: none; stroke: #008000; stroke-width: 1.5; stroke-linecap: square"/>
   </g>
   <g id="line2d_36">
    <path d="M 18.712036 243.898799 
L 23.929399 235.558969 
L 29.146763 233.847315 
L 34.364126 232.686927 
L 39.58149 231.785512 
L 44.798854 231.039595 
L 50.016217 230.399154 
L 55.233581 229.83577 
L 60.450944 229.331579 
L 65.668308 228.874538 
L 70.885672 228.456101 
L 76.103035 228.069963 
L 81.320399 227.711319 
L 86.537762 227.37642 
L 91.755126 227.062271 
L 96.97249 226.766444 
L 102.189853 226.486934 
L 107.407217 226.22207 
L 112.62458 225.970438 
L 117.841944 225.730831 
L 123.059308 225.502211 
L 128.276671 225.283676 
L 133.494035 225.074439 
L 138.711398 224.873805 
L 143.928762 224.681161 
L 149.146126 224.495961 
L 154.363489 224.317715 
L 159.580853 224.145986 
L 164.798217 223.980377 
L 170.01558 223.820529 
L 175.232944 223.666117 
L 180.450307 223.516844 
L 185.667671 223.372437 
L 190.885035 223.232647 
L 196.102398 223.097245 
L 201.319762 222.96602 
L 206.537125 222.838774 
L 211.754489 222.715327 
L 216.971853 222.595511 
L 222.189216 222.479169 
L 227.40658 222.366155 
L 232.623943 222.256332 
L 237.841307 222.149573 
L 243.058671 222.045757 
L 248.276034 221.944773 
L 253.493398 221.846516 
L 258.710761 221.750884 
L 263.928125 221.657786 
L 269.145489 221.567132 
L 274.362852 221.478838 
L 279.580216 221.392826 
L 284.797579 221.309021 
L 290.014943 221.227352 
L 295.232307 221.14775 
L 300.44967 221.070152 
L 305.667034 220.994498 
L 310.884397 220.920727 
L 316.101761 220.848787 
L 321.319125 220.778623 
L 326.536488 220.710184 
L 331.753852 220.643424 
L 336.971215 220.578296 
L 342.188579 220.514755 
L 347.405943 220.45276 
L 352.623306 220.39227 
L 357.84067 220.333246 
L 363.058033 220.275651 
L 368.275397 220.21945 
L 373.492761 220.164607 
L 378.710124 220.11109 
L 383.927488 220.058867 
L 389.144852 220.007907 
L 394.362215 219.958181 
L 399.579579 219.909661 
L 404.796942 219.862319 
L 410.014306 219.816128 
L 415.23167 219.771064 
L 420.449033 219.727102 
L 425.666397 219.684217 
L 430.88376 219.642387 
L 436.101124 219.60159 
L 441.318488 219.561804 
L 446.535851 219.523008 
L 451.753215 219.485183 
L 456.970578 219.448308 
L 462.187942 219.412365 
L 467.405306 219.377335 
L 472.622669 219.343202 
L 477.840033 219.309946 
L 483.057396 219.277553 
L 488.27476 219.246005 
L 493.492124 219.215286 
L 498.709487 219.185383 
L 503.926851 219.156278 
L 505 219.150454 
" clip-path="url(#p83196f05de)" style="fill: none; stroke: #add8e6; stroke-width: 1.5; stroke-linecap: square"/>
   </g>
   <g id="line2d_37">
    <path d="M 18.712036 239.573186 
L 23.929399 230.247005 
L 29.146763 228.331642 
L 34.364126 227.035656 
L 39.58149 226.031035 
L 44.798854 225.201546 
L 50.016217 224.490957 
L 55.233581 223.867298 
L 60.450944 223.310463 
L 65.668308 222.806892 
L 70.885672 222.346956 
L 76.103035 221.923546 
L 81.320399 221.531248 
L 86.537762 221.165827 
L 91.755126 220.823908 
L 96.97249 220.502746 
L 102.189853 220.20008 
L 107.407217 219.914019 
L 112.62458 219.642965 
L 117.841944 219.385555 
L 123.059308 219.140615 
L 128.276671 218.907123 
L 133.494035 218.684189 
L 138.711398 218.471026 
L 143.928762 218.26694 
L 149.146126 218.071312 
L 154.363489 217.883589 
L 159.580853 217.703272 
L 164.798217 217.529913 
L 170.01558 217.363106 
L 175.232944 217.20248 
L 180.450307 217.047698 
L 185.667671 216.898452 
L 190.885035 216.754458 
L 196.102398 216.615456 
L 201.319762 216.481206 
L 206.537125 216.351484 
L 211.754489 216.226085 
L 216.971853 216.104817 
L 222.189216 215.987503 
L 227.40658 215.873975 
L 232.623943 215.764079 
L 237.841307 215.657669 
L 243.058671 215.554609 
L 248.276034 215.454771 
L 253.493398 215.358035 
L 258.710761 215.264288 
L 263.928125 215.173422 
L 269.145489 215.085337 
L 274.362852 214.999938 
L 279.580216 214.917134 
L 284.797579 214.836839 
L 290.014943 214.758974 
L 295.232307 214.68346 
L 300.44967 214.610224 
L 305.667034 214.539197 
L 310.884397 214.470313 
L 316.101761 214.403508 
L 321.319125 214.338721 
L 326.536488 214.275896 
L 331.753852 214.214977 
L 336.971215 214.155911 
L 342.188579 214.098648 
L 347.405943 214.04314 
L 352.623306 213.98934 
L 357.84067 213.937204 
L 363.058033 213.88669 
L 368.275397 213.837756 
L 373.492761 213.790363 
L 378.710124 213.744473 
L 383.927488 213.700051 
L 389.144852 213.65706 
L 394.362215 213.615467 
L 399.579579 213.575239 
L 404.796942 213.536346 
L 410.014306 213.498756 
L 415.23167 213.462441 
L 420.449033 213.427372 
L 425.666397 213.393523 
L 430.88376 213.360866 
L 436.101124 213.329376 
L 441.318488 213.299029 
L 446.535851 213.269801 
L 451.753215 213.241669 
L 456.970578 213.214609 
L 462.187942 213.188601 
L 467.405306 213.163623 
L 472.622669 213.139656 
L 477.840033 213.116679 
L 483.057396 213.094673 
L 488.27476 213.073619 
L 493.492124 213.053499 
L 498.709487 213.034296 
L 503.926851 213.015993 
L 505 213.01241 
" clip-path="url(#p83196f05de)" style="fill: none; stroke: #ffa500; stroke-width: 1.5; stroke-linecap: square"/>
   </g>
   <g id="line2d_38">
    <path d="M 18.712036 270.543848 
L 23.929399 263.841221 
L 29.146763 262.465935 
L 34.364126 261.540505 
L 39.58149 260.827318 
L 44.798854 260.241994 
L 50.016217 259.743645 
L 55.233581 259.308993 
L 60.450944 258.923377 
L 65.668308 258.576898 
L 70.885672 258.262522 
L 76.103035 257.975047 
L 81.320399 257.710509 
L 86.537762 257.465804 
L 91.755126 257.238455 
L 96.97249 257.026448 
L 102.189853 256.828121 
L 107.407217 256.642082 
L 112.62458 256.467157 
L 117.841944 256.30234 
L 123.059308 256.146764 
L 128.276671 255.999679 
L 133.494035 255.860424 
L 138.711398 255.728419 
L 143.928762 255.603151 
L 149.146126 255.484162 
L 154.363489 255.371041 
L 159.580853 255.263419 
L 164.798217 255.160965 
L 170.01558 255.063376 
L 175.232944 254.970377 
L 180.450307 254.881718 
L 185.667671 254.797169 
L 190.885035 254.71652 
L 196.102398 254.639577 
L 201.319762 254.566159 
L 206.537125 254.496103 
L 211.754489 254.429253 
L 216.971853 254.365467 
L 222.189216 254.304612 
L 227.40658 254.246563 
L 232.623943 254.191205 
L 237.841307 254.138429 
L 243.058671 254.088133 
L 248.276034 254.04022 
L 253.493398 253.994601 
L 258.710761 253.951191 
L 263.928125 253.90991 
L 269.145489 253.870682 
L 274.362852 253.833436 
L 279.580216 253.798103 
L 284.797579 253.764619 
L 290.014943 253.732924 
L 295.232307 253.702959 
L 300.44967 253.67467 
L 305.667034 253.648003 
L 310.884397 253.622909 
L 316.101761 253.59934 
L 321.319125 253.577251 
L 326.536488 253.556598 
L 331.753852 253.537339 
L 336.971215 253.519435 
L 342.188579 253.502848 
L 347.405943 253.487541 
L 352.623306 253.473479 
L 357.84067 253.460628 
L 363.058033 253.448957 
L 368.275397 253.438435 
L 373.492761 253.42903 
L 378.710124 253.420716 
L 383.927488 253.413464 
L 389.144852 253.407247 
L 394.362215 253.402041 
L 399.579579 253.39782 
L 404.796942 253.39456 
L 410.014306 253.392239 
L 415.23167 253.390835 
L 420.449033 253.390326 
L 425.666397 253.39069 
L 430.88376 253.391909 
L 436.101124 253.393963 
L 441.318488 253.396833 
L 446.535851 253.400501 
L 451.753215 253.404949 
L 456.970578 253.41016 
L 462.187942 253.416118 
L 467.405306 253.422807 
L 472.622669 253.430211 
L 477.840033 253.438316 
L 483.057396 253.447105 
L 488.27476 253.456567 
L 493.492124 253.466685 
L 498.709487 253.477448 
L 503.926851 253.488841 
L 505 253.491312 
" clip-path="url(#p83196f05de)" style="fill: none; stroke: #90ee90; stroke-width: 1.5; stroke-linecap: square"/>
   </g>
   <g id="line2d_39">
    <path d="M 39.58149 101.586778 
L 44.798854 120.642681 
L 50.016217 134.758867 
L 55.233581 145.765109 
L 60.450944 154.663458 
L 65.668308 162.054962 
L 70.885672 168.324987 
L 76.103035 173.733547 
L 81.320399 178.463315 
L 86.537762 182.646903 
L 91.755126 186.383234 
L 96.97249 189.74781 
L 102.189853 192.799392 
L 107.407217 195.584497 
L 112.62458 198.140489 
L 117.841944 200.49778 
L 123.059308 202.681407 
L 128.276671 204.712193 
L 133.494035 206.607623 
L 138.711398 208.382499 
L 143.928762 210.049448 
L 149.146126 211.619318 
L 154.363489 213.101484 
L 159.580853 214.504102 
L 164.798217 215.8343 
L 170.01558 217.098341 
L 175.232944 218.301755 
L 180.450307 219.449444 
L 185.667671 220.54577 
L 190.885035 221.594632 
L 196.102398 222.599524 
L 201.319762 223.563593 
L 206.537125 224.489674 
L 211.754489 225.376537 
L 216.971853 226.123092 
L 222.189216 226.840213 
L 227.40658 227.529748 
L 232.623943 228.193384 
L 237.841307 228.832668 
L 243.058671 229.449021 
L 248.276034 230.043749 
L 253.493398 230.618056 
L 258.710761 231.173056 
L 263.928125 231.709776 
L 269.145489 232.229172 
L 274.362852 232.732127 
L 279.580216 233.219466 
L 284.797579 233.691953 
L 290.014943 234.150303 
L 295.232307 234.595184 
L 300.44967 235.027218 
L 305.667034 235.44699 
L 310.884397 235.855045 
L 316.101761 236.251898 
L 321.319125 236.63803 
L 326.536488 237.013894 
L 331.753852 237.379917 
L 336.971215 237.736501 
L 342.188579 238.084026 
L 347.405943 238.422849 
L 352.623306 238.753309 
L 357.84067 239.075725 
L 363.058033 239.390401 
L 368.275397 239.697624 
L 373.492761 239.997665 
L 378.710124 240.290784 
L 383.927488 240.577225 
L 389.144852 240.857222 
L 394.362215 241.130996 
L 399.579579 241.398759 
L 404.796942 241.660711 
L 410.014306 241.917043 
L 415.23167 242.167939 
L 420.449033 242.413573 
L 425.666397 242.654111 
L 430.88376 242.889712 
L 436.101124 243.120528 
L 441.318488 243.346705 
L 446.535851 243.568381 
L 451.753215 243.78569 
L 456.970578 243.998759 
L 462.187942 244.207712 
L 467.405306 244.412664 
L 472.622669 244.613728 
L 477.840033 244.811014 
L 483.057396 245.004623 
L 488.27476 245.194657 
L 493.492124 245.38121 
L 498.709487 245.564375 
L 503.926851 245.744241 
L 505 245.780576 
" clip-path="url(#p83196f05de)" style="fill: none; stroke: #ffff00; stroke-width: 1.5; stroke-linecap: square"/>
   </g>
   <g id="line2d_40">
    <path d="M 86.373746 -1 
L 86.537762 -0.220712 
L 91.755126 20.8638 
L 96.97249 38.984653 
L 102.189853 54.697533 
L 107.407217 68.427376 
L 112.62458 80.504688 
L 117.841944 91.190396 
L 123.059308 100.693239 
L 128.276671 109.1822 
L 133.494035 116.795533 
L 138.711398 123.647453 
L 143.928762 129.833134 
L 149.146126 135.432527 
L 154.363489 140.513279 
L 159.580853 145.133017 
L 164.798217 149.341136 
L 170.01558 153.180217 
L 175.232944 156.687164 
L 180.450307 159.894118 
L 185.667671 162.829205 
L 190.885035 165.517139 
L 196.102398 167.979728 
L 201.319762 170.236287 
L 206.537125 172.303985 
L 211.754489 174.198136 
L 216.971853 175.932441 
L 222.189216 177.519194 
L 227.40658 178.969464 
L 232.623943 180.293236 
L 237.841307 181.499545 
L 243.058671 182.596588 
L 248.276034 183.591813 
L 253.493398 184.49201 
L 258.710761 185.303374 
L 263.928125 186.031577 
L 269.145489 186.681816 
L 274.362852 187.258865 
L 279.580216 187.767114 
L 284.797579 188.210611 
L 290.014943 188.593091 
L 295.232307 188.918009 
L 300.44967 189.188562 
L 305.667034 189.407715 
L 310.884397 189.578223 
L 316.101761 189.702644 
L 321.319125 189.783364 
L 326.536488 189.822605 
L 331.753852 189.822439 
L 336.971215 189.784806 
L 342.188579 189.711518 
L 347.405943 189.604273 
L 352.623306 189.464662 
L 357.84067 189.294181 
L 363.058033 189.094231 
L 368.275397 188.866132 
L 373.492761 188.611127 
L 378.710124 188.330384 
L 383.927488 188.025007 
L 389.144852 187.696038 
L 394.362215 187.344458 
L 399.579579 186.971197 
L 404.796942 186.577135 
L 410.014306 186.163102 
L 415.23167 185.729888 
L 420.449033 185.27824 
L 425.666397 184.808866 
L 430.88376 184.322441 
L 436.101124 183.819602 
L 441.318488 183.300959 
L 446.535851 182.76709 
L 451.753215 182.218544 
L 456.970578 181.655846 
L 462.187942 181.079495 
L 467.405306 180.489968 
L 472.622669 179.88772 
L 477.840033 179.273183 
L 483.057396 178.646771 
L 488.27476 178.008882 
L 493.492124 177.359893 
L 498.709487 176.700166 
L 503.926851 176.030047 
L 505 175.890142 
" clip-path="url(#p83196f05de)" style="fill: none; stroke: #800080; stroke-width: 1.5; stroke-linecap: square"/>
   </g>
   <g id="line2d_41">
    <path d="M 18.712036 263.780353 
L 23.929399 257.831208 
L 29.146763 256.611712 
L 34.364126 255.783808 
L 39.58149 255.139637 
L 44.798854 254.605683 
L 50.016217 254.14643 
L 55.233581 253.741712 
L 60.450944 253.37886 
L 65.668308 253.049337 
L 70.885672 252.747087 
L 76.103035 252.467644 
L 81.320399 252.207607 
L 86.537762 251.964321 
L 91.755126 251.735669 
L 96.97249 251.519932 
L 102.189853 251.315693 
L 107.407217 251.121771 
L 112.62458 250.937167 
L 117.841944 250.761028 
L 123.059308 250.592621 
L 128.276671 250.43131 
L 133.494035 250.276537 
L 138.711398 250.127815 
L 143.928762 249.98471 
L 149.146126 249.846836 
L 154.363489 249.71385 
L 159.580853 249.585442 
L 164.798217 249.461332 
L 170.01558 249.341269 
L 175.232944 249.225022 
L 180.450307 249.112383 
L 185.667671 249.00316 
L 190.885035 248.897178 
L 196.102398 248.794274 
L 201.319762 248.694301 
L 206.537125 248.59712 
L 211.754489 248.502604 
L 216.971853 248.410635 
L 222.189216 248.321102 
L 227.40658 248.233903 
L 232.623943 248.148942 
L 237.841307 248.066129 
L 243.058671 247.98538 
L 248.276034 247.906617 
L 253.493398 247.829765 
L 258.710761 247.754754 
L 263.928125 247.681519 
L 269.145489 247.609997 
L 274.362852 247.54013 
L 279.580216 247.471863 
L 284.797579 247.405142 
L 290.014943 247.339919 
L 295.232307 247.276146 
L 300.44967 247.213777 
L 305.667034 247.15277 
L 310.884397 247.093085 
L 316.101761 247.034682 
L 321.319125 246.977524 
L 326.536488 246.921577 
L 331.753852 246.866807 
L 336.971215 246.813181 
L 342.188579 246.760668 
L 347.405943 246.70924 
L 352.623306 246.658866 
L 357.84067 246.609522 
L 363.058033 246.56118 
L 368.275397 246.513815 
L 373.492761 246.467404 
L 378.710124 246.421923 
L 383.927488 246.37735 
L 389.144852 246.333664 
L 394.362215 246.290844 
L 399.579579 246.24887 
L 404.796942 246.207724 
L 410.014306 246.167387 
L 415.23167 246.12784 
L 420.449033 246.089067 
L 425.666397 246.051052 
L 430.88376 246.013778 
L 436.101124 245.977229 
L 441.318488 245.941392 
L 446.535851 245.90625 
L 451.753215 245.871791 
L 456.970578 245.838 
L 462.187942 245.804865 
L 467.405306 245.772372 
L 472.622669 245.74051 
L 477.840033 245.709266 
L 483.057396 245.678628 
L 488.27476 245.648586 
L 493.492124 245.619129 
L 498.709487 245.590245 
L 503.926851 245.561924 
L 505 245.556213 
" clip-path="url(#p83196f05de)" style="fill: none; stroke: #ff0000; stroke-width: 1.5; stroke-linecap: square"/>
   </g>
   <g id="line2d_42">
    <path d="M 18.712036 223.946879 
L 23.929399 213.800858 
L 29.146763 211.719319 
L 34.364126 210.307369 
L 39.58149 209.209832 
L 44.798854 208.301013 
L 50.016217 207.520165 
L 55.233581 206.832784 
L 60.450944 206.217182 
L 65.668308 205.658745 
L 70.885672 205.147103 
L 76.103035 204.674603 
L 81.320399 204.235419 
L 86.537762 203.825001 
L 91.755126 203.439719 
L 96.97249 203.076627 
L 102.189853 202.733295 
L 107.407217 202.407697 
L 112.62458 202.098117 
L 117.841944 201.803095 
L 123.059308 201.521371 
L 128.276671 201.251853 
L 133.494035 200.993587 
L 138.711398 200.74573 
L 143.928762 200.507542 
L 149.146126 200.278358 
L 154.363489 200.057588 
L 159.580853 199.844701 
L 164.798217 199.639216 
L 170.01558 199.4407 
L 175.232944 199.248758 
L 180.450307 199.06303 
L 185.667671 198.883188 
L 190.885035 198.708928 
L 196.102398 198.539974 
L 201.319762 198.376069 
L 206.537125 198.216977 
L 211.754489 198.062478 
L 216.971853 197.912368 
L 222.189216 197.766458 
L 227.40658 197.624571 
L 232.623943 197.486542 
L 237.841307 197.352217 
L 243.058671 197.22145 
L 248.276034 197.094107 
L 253.493398 196.970058 
L 258.710761 196.849185 
L 263.928125 196.731374 
L 269.145489 196.616517 
L 274.362852 196.504514 
L 279.580216 196.39527 
L 284.797579 196.288692 
L 290.014943 196.184696 
L 295.232307 196.083201 
L 300.44967 195.984127 
L 305.667034 195.887403 
L 310.884397 195.792957 
L 316.101761 195.700723 
L 321.319125 195.610636 
L 326.536488 195.522637 
L 331.753852 195.436666 
L 336.971215 195.352668 
L 342.188579 195.27059 
L 347.405943 195.190381 
L 352.623306 195.111992 
L 357.84067 195.035376 
L 363.058033 194.960488 
L 368.275397 194.887285 
L 373.492761 194.815726 
L 378.710124 194.74577 
L 383.927488 194.677379 
L 389.144852 194.610517 
L 394.362215 194.545147 
L 399.579579 194.481236 
L 404.796942 194.41875 
L 410.014306 194.357658 
L 415.23167 194.297928 
L 420.449033 194.239532 
L 425.666397 194.18244 
L 430.88376 194.126624 
L 436.101124 194.072059 
L 441.318488 194.018717 
L 446.535851 193.966575 
L 451.753215 193.915607 
L 456.970578 193.86579 
L 462.187942 193.817101 
L 467.405306 193.769518 
L 472.622669 193.723021 
L 477.840033 193.677587 
L 483.057396 193.633197 
L 488.27476 193.589831 
L 493.492124 193.547471 
L 498.709487 193.506097 
L 503.926851 193.465692 
L 505 193.457577 
" clip-path="url(#p83196f05de)" style="fill: none; stroke: #00ffff; stroke-width: 1.5; stroke-linecap: square"/>
   </g>
   <g id="patch_3">
    <path d="M 39.58149 325.821635 
L 39.58149 6.799459 
" style="fill: none; stroke: #000000; stroke-width: 0.8; stroke-linejoin: miter; stroke-linecap: square"/>
   </g>
   <g id="patch_4">
    <path d="M 488.27476 325.821635 
L 488.27476 6.799459 
" style="fill: none; stroke: #000000; stroke-width: 0.8; stroke-linejoin: miter; stroke-linecap: square"/>
   </g>
   <g id="patch_5">
    <path d="M 39.58149 325.821635 
L 488.27476 325.821635 
" style="fill: none; stroke: #000000; stroke-width: 0.8; stroke-linejoin: miter; stroke-linecap: square"/>
   </g>
   <g id="patch_6">
    <path d="M 39.58149 6.799459 
L 488.27476 6.799459 
" style="fill: none; stroke: #000000; stroke-width: 0.8; stroke-linejoin: miter; stroke-linecap: square"/>
   </g>
   <g id="text_20">
    <!-- Reference Aircraft -->
    <g style="fill: #0000ff" transform="translate(336.971215 182.261656) scale(0.1 -0.1)">
     <defs>
      <path id="DejaVuSans-52" d="M 2841 2188 
Q 3044 2119 3236 1894 
Q 3428 1669 3622 1275 
L 4263 0 
L 3584 0 
L 2988 1197 
Q 2756 1666 2539 1819 
Q 2322 1972 1947 1972 
L 1259 1972 
L 1259 0 
L 628 0 
L 628 4666 
L 2053 4666 
Q 2853 4666 3247 4331 
Q 3641 3997 3641 3322 
Q 3641 2881 3436 2590 
Q 3231 2300 2841 2188 
z
M 1259 4147 
L 1259 2491 
L 2053 2491 
Q 2509 2491 2742 2702 
Q 2975 2913 2975 3322 
Q 2975 3731 2742 3939 
Q 2509 4147 2053 4147 
L 1259 4147 
z
" transform="scale(0.015625)"/>
      <path id="DejaVuSans-65" d="M 3597 1894 
L 3597 1613 
L 953 1613 
Q 991 1019 1311 708 
Q 1631 397 2203 397 
Q 2534 397 2845 478 
Q 3156 559 3463 722 
L 3463 178 
Q 3153 47 2828 -22 
Q 2503 -91 2169 -91 
Q 1331 -91 842 396 
Q 353 884 353 1716 
Q 353 2575 817 3079 
Q 1281 3584 2069 3584 
Q 2775 3584 3186 3129 
Q 3597 2675 3597 1894 
z
M 3022 2063 
Q 3016 2534 2758 2815 
Q 2500 3097 2075 3097 
Q 1594 3097 1305 2825 
Q 1016 2553 972 2059 
L 3022 2063 
z
" transform="scale(0.015625)"/>
      <path id="DejaVuSans-66" d="M 2375 4863 
L 2375 4384 
L 1825 4384 
Q 1516 4384 1395 4259 
Q 1275 4134 1275 3809 
L 1275 3500 
L 2222 3500 
L 2222 3053 
L 1275 3053 
L 1275 0 
L 697 0 
L 697 3053 
L 147 3053 
L 147 3500 
L 697 3500 
L 697 3744 
Q 697 4328 969 4595 
Q 1241 4863 1831 4863 
L 2375 4863 
z
" transform="scale(0.015625)"/>
      <path id="DejaVuSans-72" d="M 2631 2963 
Q 2534 3019 2420 3045 
Q 2306 3072 2169 3072 
Q 1681 3072 1420 2755 
Q 1159 2438 1159 1844 
L 1159 0 
L 581 0 
L 581 3500 
L 1159 3500 
L 1159 2956 
Q 1341 3275 1631 3429 
Q 1922 3584 2338 3584 
Q 2397 3584 2469 3576 
Q 2541 3569 2628 3553 
L 2631 2963 
z
" transform="scale(0.015625)"/>
      <path id="DejaVuSans-6e" d="M 3513 2113 
L 3513 0 
L 2938 0 
L 2938 2094 
Q 2938 2591 2744 2837 
Q 2550 3084 2163 3084 
Q 1697 3084 1428 2787 
Q 1159 2491 1159 1978 
L 1159 0 
L 581 0 
L 581 3500 
L 1159 3500 
L 1159 2956 
Q 1366 3272 1645 3428 
Q 1925 3584 2291 3584 
Q 2894 3584 3203 3211 
Q 3513 2838 3513 2113 
z
" transform="scale(0.015625)"/>
      <path id="DejaVuSans-63" d="M 3122 3366 
L 3122 2828 
Q 2878 2963 2633 3030 
Q 2388 3097 2138 3097 
Q 1578 3097 1268 2742 
Q 959 2388 959 1747 
Q 959 1106 1268 751 
Q 1578 397 2138 397 
Q 2388 397 2633 464 
Q 2878 531 3122 666 
L 3122 134 
Q 2881 22 2623 -34 
Q 2366 -91 2075 -91 
Q 1284 -91 818 406 
Q 353 903 353 1747 
Q 353 2603 823 3093 
Q 1294 3584 2113 3584 
Q 2378 3584 2631 3529 
Q 2884 3475 3122 3366 
z
" transform="scale(0.015625)"/>
      <path id="DejaVuSans-20" transform="scale(0.015625)"/>
      <path id="DejaVuSans-41" d="M 2188 4044 
L 1331 1722 
L 3047 1722 
L 2188 4044 
z
M 1831 4666 
L 2547 4666 
L 4325 0 
L 3669 0 
L 3244 1197 
L 1141 1197 
L 716 0 
L 50 0 
L 1831 4666 
z
" transform="scale(0.015625)"/>
      <path id="DejaVuSans-69" d="M 603 3500 
L 1178 3500 
L 1178 0 
L 603 0 
L 603 3500 
z
M 603 4863 
L 1178 4863 
L 1178 4134 
L 603 4134 
L 603 4863 
z
" transform="scale(0.015625)"/>
      <path id="DejaVuSans-61" d="M 2194 1759 
Q 1497 1759 1228 1600 
Q 959 1441 959 1056 
Q 959 750 1161 570 
Q 1363 391 1709 391 
Q 2188 391 2477 730 
Q 2766 1069 2766 1631 
L 2766 1759 
L 2194 1759 
z
M 3341 1997 
L 3341 0 
L 2766 0 
L 2766 531 
Q 2569 213 2275 61 
Q 1981 -91 1556 -91 
Q 1019 -91 701 211 
Q 384 513 384 1019 
Q 384 1609 779 1909 
Q 1175 2209 1959 2209 
L 2766 2209 
L 2766 2266 
Q 2766 2663 2505 2880 
Q 2244 3097 1772 3097 
Q 1472 3097 1187 3025 
Q 903 2953 641 2809 
L 641 3341 
Q 956 3463 1253 3523 
Q 1550 3584 1831 3584 
Q 2591 3584 2966 3190 
Q 3341 2797 3341 1997 
z
" transform="scale(0.015625)"/>
      <path id="DejaVuSans-74" d="M 1172 4494 
L 1172 3500 
L 2356 3500 
L 2356 3053 
L 1172 3053 
L 1172 1153 
Q 1172 725 1289 603 
Q 1406 481 1766 481 
L 2356 481 
L 2356 0 
L 1766 0 
Q 1100 0 847 248 
Q 594 497 594 1153 
L 594 3053 
L 172 3053 
L 172 3500 
L 594 3500 
L 594 4494 
L 1172 4494 
z
" transform="scale(0.015625)"/>
     </defs>
     <use xlink:href="#DejaVuSans-52"/>
     <use xlink:href="#DejaVuSans-65" x="64.982422"/>
     <use xlink:href="#DejaVuSans-66" x="126.505859"/>
     <use xlink:href="#DejaVuSans-65" x="161.710938"/>
     <use xlink:href="#DejaVuSans-72" x="223.234375"/>
     <use xlink:href="#DejaVuSans-65" x="262.097656"/>
     <use xlink:href="#DejaVuSans-6e" x="323.621094"/>
     <use xlink:href="#DejaVuSans-63" x="387"/>
     <use xlink:href="#DejaVuSans-65" x="441.980469"/>
     <use xlink:href="#DejaVuSans-20" x="503.503906"/>
     <use xlink:href="#DejaVuSans-41" x="535.291016"/>
     <use xlink:href="#DejaVuSans-69" x="603.699219"/>
     <use xlink:href="#DejaVuSans-72" x="631.482422"/>
     <use xlink:href="#DejaVuSans-63" x="670.345703"/>
     <use xlink:href="#DejaVuSans-72" x="725.326172"/>
     <use xlink:href="#DejaVuSans-61" x="766.439453"/>
     <use xlink:href="#DejaVuSans-66" x="827.71875"/>
     <use xlink:href="#DejaVuSans-74" x="861.173828"/>
    </g>
   </g>
  </g>
 </g>
 <defs>
  <clipPath id="p83196f05de">
   <rect x="39.58149" y="6.799459" width="448.69327" height="319.022176"/>
  </clipPath>
 </defs>
</svg>
